<?xml version="1.0" standalone="no"?>
<!DOCTYPE svg PUBLIC "-//W3C//DTD SVG 20010904//EN"
 "http://www.w3.org/TR/2001/REC-SVG-20010904/DTD/svg10.dtd">
<svg version="1.0" xmlns="http://www.w3.org/2000/svg"
 width="1080.000000pt" height="1080.000000pt" viewBox="0 0 1080.000000 1080.000000"
 preserveAspectRatio="xMidYMid meet">
<metadata>
Created by potrace 1.11, written by Peter Selinger 2001-2013
</metadata>
<g transform="translate(0.000000,1080.000000) scale(0.100000,-0.100000)"
fill="#000000" stroke="none">
<path d="M3730 9140 c-199 -14 -305 -29 -483 -69 -88 -20 -305 -89 -364 -117
-17 -7 -35 -14 -39 -14 -31 0 -397 -203 -490 -272 -192 -142 -221 -166 -344
-288 -131 -131 -273 -295 -303 -353 -7 -12 -28 -44 -47 -72 -54 -75 -103 -161
-154 -262 -53 -108 -136 -299 -136 -316 -1 -7 -8 -30 -16 -52 -46 -125 -107
-421 -123 -605 -5 -52 -8 -1080 -7 -2285 1 -2104 2 -2192 20 -2245 103 -306
313 -491 611 -536 75 -12 668 -14 3600 -14 2300 0 3540 4 3598 10 195 23 354
110 487 268 72 84 123 190 150 309 14 60 13 4469 0 4588 -12 105 -13 107 -44
245 -29 127 -55 224 -69 260 -3 8 -13 35 -21 60 -34 102 -132 329 -146 340 -4
3 -16 23 -26 46 -113 244 -470 660 -719 838 -98 69 -240 163 -257 169 -10 4
-18 11 -18 17 0 5 -5 10 -10 10 -6 0 -30 10 -53 21 -262 134 -409 190 -652
250 -117 28 -185 40 -310 54 -33 4 -73 10 -90 13 -45 9 -3423 10 -3545 2z
m3865 -2350 c120 -18 171 -38 248 -99 84 -65 139 -147 176 -260 7 -23 11 -224
11 -630 0 -648 -1 -660 -57 -762 -42 -78 -133 -163 -220 -206 l-77 -38 -2210
0 -2211 0 -78 37 c-122 58 -207 152 -258 288 l-24 65 0 600 0 600 23 68 c37
108 85 175 172 242 67 52 151 86 235 95 94 11 4201 11 4270 0z m-1098 -3229
c65 -29 128 -95 145 -153 40 -137 -19 -278 -143 -336 l-46 -22 -999 2 -999 3
-47 27 c-160 95 -182 310 -45 434 41 37 69 51 132 64 22 4 470 7 995 7 l955
-2 52 -24z"/>
<path d="M4215 6156 c-66 -31 -111 -75 -138 -133 -20 -44 -22 -64 -22 -228 0
-170 1 -183 24 -227 47 -91 150 -158 244 -158 50 0 139 36 177 71 14 13 39 47
55 74 l30 50 0 190 c0 186 -1 191 -27 240 -33 63 -59 87 -128 119 -73 34 -147
35 -215 2z"/>
<path d="M6515 6162 c-57 -19 -120 -77 -150 -137 -28 -58 -35 -336 -10 -422
33 -114 161 -202 273 -190 64 8 140 46 181 93 56 64 66 111 66 304 0 146 -3
170 -21 210 -60 128 -201 187 -339 142z"/>
</g>
</svg>
