<svg width="100" height="100" viewBox="0 0 100 100" fill="none" xmlns="http://www.w3.org/2000/svg"><g clip-path="url(#clip0)"><mask id="mask0" maskUnits="userSpaceOnUse" x="0" y="0" width="100" height="100"><circle cx="50" cy="50" r="50" fill="#C4C4C4"/></mask><g clip-path="url(#clip1)"><path d="M128-32H-28v156h156V-32z" fill="#F3EFEC"/><path d="M128.244 94.4h-156v29.466h156V94.401z" fill="#E9E4E0"/><path d="M5.297 82.638h-9.881a.312.312 0 00-.312.312v7.488A3.947 3.947 0 00-.95 94.401h2.615a3.947 3.947 0 003.947-3.947v-7.488a.312.312 0 00-.315-.328z" fill="#C1C1C1"/><path d="M4.111 93.112c2.23-1.248 6.056-4.973 5.42-7.587a2.2 2.2 0 00-1.249-1.523c-1.478-.686-3.594.143-3.828.24l.702 1.466c.512-.205 1.76-.546 2.346-.27a.562.562 0 01.312.439c.372 1.523-2.62 4.733-4.627 5.866l.924 1.37z" fill="#C1C1C1"/><path d="M1.376 80.286c.04.078.046-.028.071-.094l.057-.237c.034-.165.065-.334.09-.508.047-.36.066-.723.056-1.086a6.315 6.315 0 00-.483-2.234 5.326 5.326 0 00-1.22-1.775 5.175 5.175 0 00-.752-.624l-.624-.421a7.039 7.039 0 01-1.829-1.82 3.326 3.326 0 01-.449-.954 1.102 1.102 0 01-.031-.584 3.789 3.789 0 01.278-.59 4.21 4.21 0 01.59-.767c.431-.431.986-.72 1.587-.823a2.808 2.808 0 011.735.312c.313.16.608.356.877.583.154.11.298.233.43.368a.936.936 0 00.484.312l.583.106c1.273.231 2.443-.936 2.618-2.633a3.81 3.81 0 00-.555-2.452 2.858 2.858 0 00-.696-.69 7.054 7.054 0 00-.792-.518 8.16 8.16 0 00-1.72-.79 6.075 6.075 0 00-3.79-.03 7.176 7.176 0 00-3.354 2.427 9.14 9.14 0 00-1.6 3.335 7.465 7.465 0 00-.21 1.6 7.004 7.004 0 00.624 2.968c.32.706.76 1.352 1.298 1.91a8.891 8.891 0 002.905 2l.37.152.182.072.128.047c.173.05.34.12.496.209.326.157.62.375.864.643.292.32.525.69.69 1.092.103.241.19.49.262.742.04.134.078.272.112.415l.053.225c.025.087.025.137.081.368.056.23.228.33.39.259a.446.446 0 00.194-.515z" fill="#fff"/><path d="M.699 17.212h-3.326v16.286H.7V17.212z" fill="#E3DFDC"/><path d="M4.537 22.337l-3.273-.014-.048 11.297 3.273.014.048-11.297z" fill="#D3CDC9"/><path d="M7.568 22.85L5.08 24.976l7.339 8.589 2.488-2.126-7.339-8.59z" fill="#E3DFDC"/><path d="M22.341 38.182l-39.839-.203.01-4.137 39.839.203-.01 4.137z" stroke="#E3DFDC" stroke-width=".936" stroke-miterlimit="10"/><path d="M35.871 30.681h26.923v14.933a6.025 6.025 0 01-6.025 6.024H42.514a6.634 6.634 0 01-6.634-6.633V30.681h-.009z" fill="#9A1C27"/><path d="M70.315 72.642l-40.704-.687v-4.33c0-7.07 8.69-13.663 17.235-13.663h6.418c7.591 0 17.05 6.64 17.05 12.92v5.76z" fill="#383F45"/><path d="M52.01 45.008h-5.182a1.897 1.897 0 00-1.897 1.894v8.128a4.49 4.49 0 108.977 0v-8.128a1.897 1.897 0 00-1.898-1.894z" fill="#FBC39D"/><path d="M44.932 53.9s.365 2.646 4.49 2.646c4.124 0 4.486-2.646 4.486-2.646h-8.976zm17.384-19.085a2.949 2.949 0 102.833 2.946 2.892 2.892 0 00-2.833-2.946zm-25.781 0a2.949 2.949 0 102.833 2.946 2.892 2.892 0 00-2.834-2.946z" fill="#F9AC7F"/><path d="M48.388 54.789l-.022.022c.346.031.699.05 1.055.05 1.044 0 2.084-.135 3.095-.4a.11.11 0 010-.028c5.482-1.438 9.54-6.602 9.54-12.748V26.278c0-7.263-5.662-6.105-12.648-6.105-6.985 0-12.648-1.158-12.648 6.105v15.407c.012 6.901 5.129 12.558 11.628 13.104z" fill="#FBC39D"/><path d="M60.452 36.618v4.16H55.03s-1.111-3-5.616-3c-4.506 0-5.616 3-5.616 3h-5.413v-4.16c0-1.638-.6-2.184-1.613-2.355v7.422c0 6.902 5.113 12.558 11.615 13.104l-.022.022c.347.031.7.05 1.055.05.356 0 .705-.019 1.051-.05l-.021-.022c6.502-.546 11.618-6.202 11.618-13.104v-7.422c-1.017.193-1.616.717-1.616 2.355z" fill="#3A0909"/><path d="M45.504 42.568h7.616s-.671 2.986-3.803 2.986c-3.133 0-3.813-2.986-3.813-2.986z" fill="#E6E6E6"/><path d="M79.281 89.89H19.98a2.206 2.206 0 00-2.206 2.205v.1c0 1.218.988 2.206 2.206 2.206h59.302a2.206 2.206 0 002.206-2.206v-.1a2.206 2.206 0 00-2.206-2.206z" fill="#C1C1C1"/><path d="M73.856 60.717H25.041a2.83 2.83 0 00-2.83 2.83v28.024a2.83 2.83 0 002.83 2.83h48.815a2.83 2.83 0 002.83-2.83V63.547a2.83 2.83 0 00-2.83-2.83z" fill="#D2D3D5"/><path d="M48.778 81.368a3.81 3.81 0 113.81-3.809 3.816 3.816 0 01-3.81 3.81z" fill="#fff"/><path d="M49.67 39.536h-.734a1.443 1.443 0 01-1.429-1.62l.365-2.93a1.442 1.442 0 012.858 0l.365 2.93a1.438 1.438 0 01-1.426 1.62z" fill="#F9AC7F"/><path d="M50.366 14.254h-2.658c-.59 0-1.067.478-1.067 1.067v.053c0 .59.477 1.068 1.067 1.068h2.658c.59 0 1.067-.478 1.067-1.068v-.053c0-.589-.478-1.067-1.067-1.067z" fill="#952C1B"/><path d="M35.871 30.681l26.926-.015v-3.18a11.812 11.812 0 00-11.822-11.809H47.68A11.818 11.818 0 0035.871 27.5v3.182z" fill="#DB3A40"/><path d="M48.029 22.653h2.24a3.653 3.653 0 013.654 3.654v2.533h-9.538v-2.52a3.652 3.652 0 013.644-3.667z" fill="#3A0909"/><path d="M44.55 26.878h9.403v3.16H44.55a1.577 1.577 0 01-1.459-2.183 1.58 1.58 0 011.46-.977z" fill="#EF818A"/><path d="M46.078 28.528a.77.77 0 11-1.54-.018.77.77 0 011.54.018z" fill="#FF553C"/><path d="M46.078 28.528a.77.77 0 11-1.54-.018.77.77 0 011.54.018zm2.514.745a.768.768 0 10-.257-1.514.768.768 0 00.257 1.514zm3.793-.745a.768.768 0 11-1.536 0 .768.768 0 011.536 0z" fill="#DB3A40"/><path d="M44.453 33.717a1.17 1.17 0 11-2.339 0 1.17 1.17 0 012.34 0zm11.625 0a1.17 1.17 0 11-2.339 0 1.17 1.17 0 012.34 0z" fill="#111110"/><path d="M53.953 26.872s2.3-1.386 2.125-3.695l-2.964.843.624-2.559-2.63 2.7 2.845 2.71z" fill="#3A0909"/><path d="M2.877 6.45c6.584 0 11.921-5.337 11.921-11.92 0-6.585-5.337-11.922-11.921-11.922S-9.045-12.055-9.045-5.471c0 6.585 5.338 11.922 11.922 11.922z" fill="#F4F4F4"/><path d="M2.888-16.281A10.658 10.658 0 1013.546-5.623 10.67 10.67 0 002.888-16.281z" fill="#F4F4F4"/><path d="M2.889 6.75A12.377 12.377 0 1115.266-5.622 12.386 12.386 0 012.889 6.75zm0-23.031A10.658 10.658 0 1013.547-5.623 10.67 10.67 0 002.889-16.281z" fill="#E3DFDC" stroke="#E3DFDC" stroke-width=".574" stroke-miterlimit="10"/><path d="M102.161 84.064h-2.216V69.497a1.107 1.107 0 011.891-.783c.208.207.325.489.325.783v14.567zm-3.489 4.266h-2.215V73.75a1.108 1.108 0 011.892-.784c.208.208.325.49.326.784l-.003 14.58z" fill="#fff"/><path d="M106.975 79.79H94.822v14.667h12.153V79.79z" fill="#C1C1C1"/><path d="M108.303 77.029H93.627v2.758h14.676v-2.758z" fill="#AAA"/><path d="M112.043-6.366H77.607v41.509h34.436V-6.366z" fill="#F4F4F4"/><path d="M112.043-6.366H77.607v41.509h34.436V-6.366z" stroke="#E3DFDC" stroke-width="1.429" stroke-miterlimit="10"/><path d="M106.014-.107h-23.01v29.135h23.01V-.107z" fill="#E3DFDC"/><path d="M87.13 14.912a.745.745 0 010-1.048l3.678-3.678a.742.742 0 111.051 1.048l-3.17 3.154 3.155 3.155a.743.743 0 11-1.058 1.045l-3.657-3.676zm10.03 2.63l3.164-3.154-3.151-3.154a.746.746 0 011.057-1.048l3.673 3.678a.745.745 0 010 1.048l-3.679 3.676a.755.755 0 01-.524.221.749.749 0 01-.534-1.267h-.006zm-4.502.902l1.919-8.442a.744.744 0 011.45.33L94.1 18.775a.745.745 0 01-.73.58 1.528 1.528 0 01-.17 0 .746.746 0 01-.558-.892l.01-.019h.006z" fill="#F3EFEC"/></g></g><defs><clipPath id="clip0"><rect width="100" height="100" rx="50" fill="#fff"/></clipPath><clipPath id="clip1"><path fill="#fff" transform="translate(-28 -32)" d="M0 0h156v156H0z"/></clipPath></defs></svg>