<svg width="223" height="48" viewBox="0 0 223 48" fill="none" xmlns="http://www.w3.org/2000/svg"><path d="M18.097 22.176a1.715 1.715 0 103.43 0V20.68a1.715 1.715 0 00-3.43 0v1.495zm16.34 1.715a1.715 1.715 0 01-1.715-1.715V20.68a1.715 1.715 0 113.43 0v1.495c0 .947-.767 1.715-1.715 1.715z" fill="#222126"/><path fill-rule="evenodd" clip-rule="evenodd" d="M54.249 43.286A4.714 4.714 0 0149.535 48H4.714A4.714 4.714 0 010 43.286v-26.37C0 7.575 7.574 0 16.917 0h20.415C46.675 0 54.25 7.574 54.25 16.917v26.37zm-19.495-5.992c0 .948-.768 1.716-1.715 1.716H21.21a1.715 1.715 0 010-3.43h11.828c.948 0 1.716.767 1.716 1.715zm-24.05-12.517a3.109 3.109 0 003.108 3.11h26.625a3.109 3.109 0 003.108-3.11v-6.615a3.109 3.109 0 00-3.108-3.11H13.812a3.109 3.109 0 00-3.108 3.11v6.615z" fill="#222126"/><path d="M76.8 15.8h5.792v-3.2H73.28V35h3.52v-9.248h4.544v-3.2H76.8V15.8z" fill="#222126"/><path fill-rule="evenodd" clip-rule="evenodd" d="M95.224 35c-.352-.832-.384-1.632-.384-2.72v-3.456c0-2.336-.576-4.032-2.336-4.768 1.568-.736 2.304-2.24 2.304-4.544v-1.76c0-3.456-1.568-5.152-5.216-5.152H84.28V35h3.52v-9.12h1.216c1.6 0 2.304.768 2.304 2.848v3.52c0 1.793.124 2.164.31 2.723l.01.029h3.584zm-5.728-19.2c1.248 0 1.792.704 1.792 2.304v2.208c0 1.792-.8 2.368-2.112 2.368H87.8V15.8h1.696z" fill="#222126"/><path d="M100.675 15.8h6.08v-3.2h-9.6V35h9.6v-3.2h-6.08v-6.56h4.832v-3.2h-4.832V15.8zm11.781 0h6.08v-3.2h-9.6V35h9.6v-3.2h-6.08v-6.56h4.832v-3.2h-4.832V15.8zm8.262 19.2h9.312v-3.2h-5.792V12.6h-3.52V35z" fill="#222126"/><path fill-rule="evenodd" clip-rule="evenodd" d="M139.369 12.6h-5.152L130.633 35h3.232l.608-4.064h4.32l.608 4.064h3.552l-3.584-22.4zm-2.752 3.968l1.696 11.328h-3.392l1.696-11.328z" fill="#222126"/><path d="M152.113 35h3.616V12.6h-3.136v13.408L148.977 12.6h-4.416V35h3.168V18.776L152.113 35zm13.016-8.352v3.2c0 1.6-.704 2.176-1.824 2.176s-1.824-.576-1.824-2.176V17.752c0-1.6.704-2.208 1.824-2.208s1.824.608 1.824 2.208v2.4h3.328v-2.176c0-3.584-1.792-5.632-5.248-5.632-3.456 0-5.248 2.048-5.248 5.632v11.648c0 3.584 1.792 5.632 5.248 5.632 3.456 0 5.248-2.048 5.248-5.632v-2.976h-3.328zm8.984-10.848h6.08v-3.2h-9.6V35h9.6v-3.2h-6.08v-6.56h4.832v-3.2h-4.832V15.8z" fill="#222126"/><path fill-rule="evenodd" clip-rule="evenodd" d="M192.655 12.6h-5.312V35h5.536c3.52 0 5.344-1.856 5.344-5.312v-1.824c0-2.368-.736-4.064-2.624-4.8 1.568-.736 2.272-2.208 2.272-4.512v-.8c0-3.456-1.568-5.152-5.216-5.152zm-.224 12.32c1.6 0 2.272.64 2.272 2.72v1.952c0 1.664-.641 2.208-1.824 2.208h-2.016v-6.88h1.568zm.128-9.12c1.248 0 1.792.704 1.792 2.304v1.248c0 1.792-.8 2.368-2.112 2.368h-1.376V15.8h1.696zm7.496 13.824c0 3.584 1.888 5.632 5.344 5.632 3.456 0 5.344-2.048 5.344-5.632V17.976c0-3.584-1.888-5.632-5.344-5.632-3.456 0-5.344 2.048-5.344 5.632v11.648zm3.52-11.872c0-1.6.704-2.208 1.824-2.208s1.824.608 1.824 2.208v12.096c0 1.6-.704 2.208-1.824 2.208s-1.824-.608-1.824-2.208V17.752z" fill="#222126"/><path d="M212.006 15.8h3.68V35h3.52V15.8h3.68v-3.2h-10.88v3.2z" fill="#222126"/></svg>