<svg width="186" height="96" viewBox="0 0 186 96" fill="none" xmlns="http://www.w3.org/2000/svg"><path d="M22.222 68.8h5.792v-3.2h-9.312V88h3.52v-9.248h4.544v-3.2h-4.544V68.8zM40.646 88c-.352-.832-.384-1.632-.384-2.72v-3.456c0-2.336-.576-4.032-2.336-4.768 1.568-.736 2.304-2.24 2.304-4.544v-1.76c0-3.456-1.568-5.152-5.216-5.152h-5.312V88h3.52v-9.12h1.216c1.6 0 2.304.768 2.304 2.848v3.52c0 1.824.128 2.176.32 2.752h3.584zm-5.728-19.2c1.248 0 1.792.704 1.792 2.304v2.208c0 1.792-.8 2.368-2.112 2.368h-1.376V68.8h1.696zm11.179 0h6.08v-3.2h-9.6V88h9.6v-3.2h-6.08v-6.56h4.832v-3.2h-4.832V68.8zm11.781 0h6.08v-3.2h-9.6V88h9.6v-3.2h-6.08v-6.56h4.832v-3.2h-4.832V68.8zM66.14 88h9.312v-3.2H69.66V65.6h-3.52V88zm18.652-22.4H79.64L76.055 88h3.232l.608-4.064h4.32L84.823 88h3.552l-3.584-22.4zm-2.752 3.968l1.696 11.328h-3.392l1.696-11.328zM97.534 88h3.616V65.6h-3.136v13.408L94.398 65.6h-4.416V88h3.168V71.776L97.534 88zm13.017-8.352v3.2c0 1.6-.704 2.176-1.824 2.176s-1.824-.576-1.824-2.176V70.752c0-1.6.704-2.208 1.824-2.208s1.824.608 1.824 2.208v2.4h3.328v-2.176c0-3.584-1.792-5.632-5.248-5.632-3.456 0-5.248 2.048-5.248 5.632v11.648c0 3.584 1.792 5.632 5.248 5.632 3.456 0 5.248-2.048 5.248-5.632v-2.976h-3.328zm8.983-10.848h6.08v-3.2h-9.6V88h9.6v-3.2h-6.08v-6.56h4.832v-3.2h-4.832V68.8zm18.542-3.2h-5.312V88h5.536c3.52 0 5.344-1.856 5.344-5.312v-1.824c0-2.368-.736-4.064-2.624-4.8 1.568-.736 2.272-2.208 2.272-4.512v-.8c0-3.456-1.568-5.152-5.216-5.152zm-.224 12.32c1.6 0 2.272.64 2.272 2.72v1.952c0 1.664-.64 2.208-1.824 2.208h-2.016v-6.88h1.568zm.128-9.12c1.248 0 1.792.704 1.792 2.304v1.248c0 1.792-.8 2.368-2.112 2.368h-1.376V68.8h1.696zm11.016 1.952c0-1.6.704-2.208 1.824-2.208s1.824.608 1.824 2.208v12.096c0 1.6-.704 2.208-1.824 2.208s-1.824-.608-1.824-2.208V70.752zm-3.52 11.872c0 3.584 1.888 5.632 5.344 5.632 3.456 0 5.344-2.048 5.344-5.632V70.976c0-3.584-1.888-5.632-5.344-5.632-3.456 0-5.344 2.048-5.344 5.632v11.648zM157.428 68.8h3.68V88h3.52V68.8h3.68v-3.2h-10.88v3.2z" fill="#fff"/><path fill-rule="evenodd" clip-rule="evenodd" d="M112.535 48H67.714A4.714 4.714 0 0163 43.286v-26.37C63 7.575 70.574 0 79.917 0h20.415c9.343 0 16.917 7.574 16.917 16.917v26.37A4.714 4.714 0 01112.535 48zm-16.496-8.99H84.21a1.715 1.715 0 010-3.43h11.83a1.715 1.715 0 110 3.43zM76.811 27.886h26.625a3.11 3.11 0 003.109-3.109v-6.615a3.11 3.11 0 00-3.109-3.11H76.812a3.109 3.109 0 00-3.108 3.11v6.615a3.109 3.109 0 003.108 3.11z" fill="#222126"/><path d="M82.812 23.891a1.715 1.715 0 01-1.715-1.715V20.68a1.715 1.715 0 113.43 0v1.495c0 .947-.768 1.715-1.715 1.715zm14.625 0a1.715 1.715 0 01-1.715-1.715V20.68a1.715 1.715 0 113.43 0v1.495c0 .947-.767 1.715-1.715 1.715z" fill="#222126"/><path fill-rule="evenodd" clip-rule="evenodd" d="M112.535 48H67.714A4.714 4.714 0 0163 43.286v-26.37C63 7.575 70.574 0 79.917 0h20.415c9.343 0 16.917 7.574 16.917 16.917v26.37A4.714 4.714 0 01112.535 48zm-16.496-8.99H84.21a1.715 1.715 0 010-3.43h11.83a1.715 1.715 0 110 3.43zM76.811 27.886h26.625a3.11 3.11 0 003.109-3.109v-6.615a3.11 3.11 0 00-3.109-3.11H76.812a3.109 3.109 0 00-3.108 3.11v6.615a3.109 3.109 0 003.108 3.11z" fill="#fff"/><path d="M82.812 23.891a1.715 1.715 0 01-1.715-1.715V20.68a1.715 1.715 0 113.43 0v1.495c0 .947-.768 1.715-1.715 1.715zm14.625 0a1.715 1.715 0 01-1.715-1.715V20.68a1.715 1.715 0 113.43 0v1.495c0 .947-.767 1.715-1.715 1.715z" fill="#fff"/></svg>