<svg width="646" height="405" viewBox="0 0 646 405" fill="none" xmlns="http://www.w3.org/2000/svg"><g clip-path="url(#clip0)"><rect width="646" height="405" rx="37" fill="#fff"/><path d="M605.736 333.567H36.717s-.491-4.697-.637-12.285a223.85 223.85 0 01.265-15.85c.029-.491.055-.991.086-1.492a211.9 211.9 0 01.69-8.622l.083-.793c.331-3.11.739-6.339 1.248-9.661a191.49 191.49 0 011.571-8.849c.29-1.428.6-2.865.93-4.311.128-.567.263-1.135.397-1.706.265-1.102.542-2.233.833-3.35a158.414 158.414 0 012.376-8.283c.089-.28.179-.567.267-.853a151.168 151.168 0 014.816-12.912c4.772-11.159 11.164-22.084 19.698-31.864 19.55-22.406 50.336-38.816 98.662-38.335 9.714.095 18.735-.159 27.165-.716h.014c2.561-.169 5.067-.367 7.52-.593h.024c55.807-5.142 83.781-24.274 109.205-42.94l2.731-2.008c8.893-6.55 17.584-12.975 27.174-18.648a154.177 154.177 0 017.562-4.201c15.898-8.241 34.709-14.225 60.706-15.515a64.373 64.373 0 017.417.049 57.69 57.69 0 012.733.238c10.108 1.102 19.047 4.706 26.539 10.396 19.493 14.807 29.177 43.775 24.108 79.94-3.432 24.491 4.32 37.771 17.599 46.45 36.758 24.036 115.85 12.845 117.237 106.714z" fill="#F8FBFF"/><path d="M330.636 239.848v-11.181h-2.623v-19.228h-14.055v19.228h-13.141v-31.331h-14.503v20.337h-3.306v-24.28h-14.5v45.525h-18.34v26.548h-6.855v-11.818h-15.739v6.989h-9.037v-31.293h-11.163v23.162H196.21v84.872h145.625v-97.53h-11.199zm157.392 38.435v59.093H347.303v-51.425h10.786v-14.033h10.789v18.961h8.735v-4.236h15.208v7.161h6.623v-16.085h17.723v-27.584h14.014v14.712h3.195v-12.323h14.014v18.984h12.697v-11.651h13.586v11.651h2.533v6.775h10.822z" fill="#E7F1FB"/><path d="M197.638 255.116v81.962H69.342v-71.323h9.834v-19.464h9.835v26.296h7.96v-5.876h13.869v9.934h6.037v-22.31h16.158V216.08h12.775v20.403h2.913V219.39h12.775v26.33h11.58v-16.158h12.385v16.158h2.308v9.396h9.867z" fill="#E7F1FB"/><path d="M349.395 105.294V336.84h-7.549V109.495a152.715 152.715 0 017.549-4.201zm-146.67 67.796v163.751h-7.558V173.685l7.558-.595z" fill="#DEEDFF"/><path d="M314.661 128.144v18.001c0 2.265-.573 4.112-1.274 4.112h-.183c-.701 0-1.274-1.847-1.274-4.112v-15.993l2.731-2.008z" fill="#F99746"/><path d="M312.585 142.995c-9.95 0-18.014 8.529-18.014 19.049h36.034c0-10.52-8.071-19.049-18.02-19.049z" fill="#F99746"/><path d="M314.019 143.229a7.255 7.255 0 00-1.582-.174c-6.482 0-11.737 8.503-11.737 18.99h3.165c0-9.621 4.422-17.566 10.154-18.816z" fill="#FFB278"/><path d="M420.253 90.067v51.725c0 .454 0 .899-.018 1.322-.097 4.033-.626 7.135-1.261 7.135h-.18c-.587 0-1.085-2.67-1.23-6.273a33.232 33.232 0 01-.029-.91v-.067a53.623 53.623 0 01-.013-1.216V89.829a57.97 57.97 0 012.731.238z" fill="#F99746"/><path d="M418.175 142.995c-9.95 0-18.014 8.529-18.014 19.049h36.03c0-10.52-8.067-19.049-18.016-19.049z" fill="#F99746"/><path d="M419.609 143.229a7.255 7.255 0 00-1.582-.174c-6.482 0-11.737 8.503-11.737 18.99h3.165c0-9.621 4.421-17.566 10.154-18.816z" fill="#FFB278"/><path d="M605.736 337.127H488.028v.033h-41.236V100.463c19.493 15.03 29.177 44.443 24.108 81.152-3.432 24.866 4.32 38.35 17.599 47.167 36.758 24.401 115.85 13.041 117.237 108.345z" fill="#DEEDFF"/><path d="M533.046 309.166s-4.543-5.29-.28-8.666c0 0 3.112-1.885 5.651-1.733 0 0-3.597 6.033-2.424 6.632 1.172.6 3.526-7.009 3.526-7.009s7.086-.687 9.365.408c0 0-6.056 4.957-4.78 5.252 1.276.296 7.818-4.571 7.818-4.571s6.592 1.124 6.241 5.147c-.35 4.022-2.625 5.263-3.623 5.157-.998-.106-6.833-2.338-6.967-1.518-.135.819 3.39 3.491 5.852 3.616 0 0-4.649 5.127-7.739 3.648-3.09-1.479-3.352-3.826-5.29-4.706-1.937-.879-3.57-.881-2.774.02.795.902 4.28 1.764 5.382 3.719 1.102 1.955 2.089 3.262-1.102 2.779-3.192-.483-8.391-2.819-8.62-5.497l-.236-2.678z" fill="#82B378"/><path d="M554.91 304.734s-17.91-.69-21.864 4.432c0 0-.882 2.619-3.566 5.003l-.421 1.144s3.103-3.271 4.214-3.469c0 0-1.737-6.345 21.637-7.11z" fill="#82B378"/><path d="M529.48 314.169s-3.847 2.844-4.113 7.924l.698.062s1.228-5.252 3.448-7.307c2.219-2.054-.033-.679-.033-.679z" fill="#82B378"/><path d="M517.163 302.501s7.225-4.046 3.855-9.539c0 0-2.698-3.37-5.589-4.238 0 0 1.543 8.19 0 8.375-1.543.185-1.06-9.257-1.06-9.257s-7.611-3.661-10.598-3.372c0 0 4.721 7.996 3.181 7.802-1.541-.194-6.833-8.285-6.833-8.285s-7.811-1.426-9.058 3.203c-1.248 4.628.771 6.936 1.928 7.224 1.157.289 8.574.192 8.376 1.158-.199.965-5.204 2.503-7.999 1.637 0 0 3.086 7.611 7.13 7.225 4.045-.386 5.29-2.889 7.805-3.086 2.515-.196 4.335.483 3.085 1.158-1.249.674-5.492.22-7.515 1.941-2.024 1.722-3.661 2.78.097 3.549 3.757.769 10.5.291 11.849-2.601l1.346-2.894z" fill="#A8D29F"/><path d="M494.62 288.626s20.231 6.553 22.543 13.886c0 0-.097 3.275 1.927 7.033v1.444s-2.118-4.913-3.276-5.587c0-.011 4.53-6.37-21.194-16.776z" fill="#82B378"/><path d="M519.09 309.534s3.121 4.737 1.342 10.505l-.802-.22s.778-6.353-.853-9.546c-1.631-3.194.313-.739.313-.739z" fill="#82B378"/><path d="M528.66 296.921s-9.526-5.334-5.08-12.563c0 0 3.555-4.446 7.365-5.59 0 0-2.032 10.8 0 11.049 2.033.249 1.398-12.191 1.398-12.191s10.033-4.827 13.969-4.445c0 0-6.224 10.542-4.188 10.286 2.037-.256 9.017-10.921 9.017-10.921s10.287-1.904 11.937 4.188c1.651 6.092-1.016 9.142-2.539 9.523-1.523.382-11.302.254-11.049 1.523.254 1.27 6.859 3.307 10.542 2.16 0 0-4.064 10.033-9.398 9.524-5.334-.509-6.984-3.808-10.286-4.062-3.302-.253-5.715.635-4.064 1.523 1.65.888 7.238.291 9.905 2.559 2.667 2.268 4.827 3.663-.128 4.679-4.955 1.016-13.842.382-15.62-3.427l-1.781-3.815z" fill="#A8D29F"/><path d="M558.377 278.633s-26.669 8.636-29.717 18.294c0 0 .126 4.318-2.541 9.27v1.905s2.794-6.476 4.317-7.364c0-.007-5.968-8.389 27.941-22.105z" fill="#82B378"/><path d="M526.119 306.191s-4.113 6.246-1.764 13.848l1.058-.285s-1.027-8.375 1.124-12.585c2.152-4.21-.418-.978-.418-.978z" fill="#82B378"/><path d="M528.338 336.526c2.45 0 4.876-.483 7.139-1.421a18.645 18.645 0 0010.098-10.097 18.671 18.671 0 001.42-7.14H509.68a18.659 18.659 0 0018.658 18.658z" fill="#F1A34F"/><path d="M532.938 336.382a18.662 18.662 0 01-19.321-10.843 18.665 18.665 0 01-1.653-7.671h4.628a18.658 18.658 0 0016.346 18.514z" fill="#FFB973"/><path d="M547.264 337.475h-37.842a2.303 2.303 0 012.301-2.301h33.229a2.3 2.3 0 012.301 2.301h.011z" fill="#F1A34F"/><path d="M547.421 317.868h-38.353v.573h38.353v-.573z" fill="#D86713"/><path d="M449.911 279.01c.337-8.224 1.069-15.374 1.944-20.361 1.393-7.95 2.645-12.526 2.662-12.563.183-.699 2.837-3.527 8.735-3.441 5.898.086 5.338 3.798 5.338 3.798.001.11-.013.221-.042.328-.057.192-5.47 19.554-5.237 44.553 0 .353.045.959.018 1.362 0 0-13.665.348-13.665 0-.481-2.191-.249-8.25.247-13.676z" fill="#D1A586"/><path d="M448.192 291.192c0 .348.189.626.418.626.221 0 .408-.285.413-.626h11.712c0 .348.19.626.417.626.231 0 .414-.293.412-.646a171.84 171.84 0 01.972-19.735c1.556-14.71 4.434-24.54 4.476-24.686.028-.108.042-.219.042-.33 0 0 .56-3.71-5.338-3.798-5.898-.088-8.552 2.742-8.735 3.441-.011.037-.721 2.627-1.666 7.273-.313 1.543-.65 3.306-.999 5.29-.881 4.988-1.604 12.142-1.941 20.361-.485 5.448-.659 10.02-.183 12.204z" fill="#E5BD9E"/><path d="M448.192 291.192c0 .348.189.626.418.626.221 0 .408-.284.413-.626h11.712c0 .348.19.626.417.626.231 0 .414-.293.412-.646a171.85 171.85 0 01.972-19.735c-1.938-9.334-9.423-16.473-11.221-18.073-.313 1.543-.65 3.306-.999 5.29-.881 4.987-1.604 12.142-1.941 20.361-.485 5.422-.659 9.993-.183 12.177z" fill="#DFB697"/><path d="M459.997 291.073l-.033-.025s-.018 0-.02-.057a.31.31 0 00-.09-.242c-.371-.377-1.788-.362-3.586-.342-1.96.022-4.409.048-6.833-.37-1.259-.221-.41-9.771.485-18.706.15-1.517.271-2.716.324-3.421.582-7.602 3.945-21.093 3.978-21.199.148-.568 2.171-2.675 6.557-2.605 1.66.024 2.835.441 3.494 1.21a2.264 2.264 0 01.54 1.689.916.916 0 01-.033.255c-.018.073-3.051 17.523-3.545 21.71-.817 6.908-1.141 21.19-1.157 21.988v.071l-.081.044zm-2.616-.807c1.311 0 2.235.059 2.559.388 0-.331.022-.946.055-2.107.037-1.367.103-3.5.2-5.907.168-4.212.461-10.004.895-13.687.509-4.292 3.526-21.68 3.551-21.735a.862.862 0 00.028-.22 2.179 2.179 0 00-.511-1.596c-.633-.747-1.763-1.137-3.392-1.161-4.313-.055-6.284 1.959-6.427 2.508-.033.126-3.39 13.557-3.967 21.174a187.64 187.64 0 01-.327 3.423c-.595 5.951-1.835 18.345-.595 18.561 2.425.418 4.849.39 6.809.37.396-.002.773-.002 1.122-.002v-.009z" fill="#D1A586"/><path d="M462.441 291.818h-45.922s1.069-4.267 27.663-3.633c18.821.45 18.259 3.633 18.259 3.633z" fill="#E5BD9E"/><path d="M466.177 336.404c-5.323-26.585-3.955-42.9-3.948-43.107.013-.408-.752-.78-1.164-.793-.412-.014-2.252-.122-2.466.22-.278.458-1.351 20.56 6.586 43.671l.992.009zm-42.876 0c5.325-26.585 3.957-42.9 3.95-43.107-.013-.408.751-.78 1.161-.793.41-.014 2.255-.122 2.469.22.278.458 1.351 20.56-6.586 43.671l-.994.009z" fill="#D1A586"/><path d="M414.8 336.404c5.325-26.585 3.967-42.9 3.95-43.107-.014-.408.751-.78 1.161-.793.41-.014 2.255-.122 2.469.22.277.458 1.351 20.56-6.586 43.671l-.994.009zm42.822 0c-5.322-26.585-3.954-42.9-3.947-43.107.013-.408-.752-.78-1.164-.793-.412-.014-2.252-.122-2.466.22-.278.458-1.351 20.56 6.583 43.671l.994.009z" fill="#A0795F"/><path d="M416.486 293.18h45.933a.935.935 0 00.935-.935v-.597a.935.935 0 00-.935-.935h-45.933a.935.935 0 00-.934.935v.597c0 .516.418.935.934.935zM276.12 278.212c.339-8.335 1.071-15.587 1.944-20.643 1.395-8.06 2.645-12.697 2.665-12.746.183-.71 2.836-3.577 8.734-3.489 5.899.088 5.339 3.851 5.339 3.851.001.112-.014.224-.044.332-.055.194-5.471 19.837-5.235 45.17 0 .355.042.97.018 1.38 0 0-13.666.353-13.666 0-.482-2.215-.249-8.353.245-13.855z" fill="#D1A586"/><path d="M274.401 290.562c0 .352.19.637.417.637.22 0 .408-.289.41-.637h11.712c0 .352.192.637.419.637.231 0 .416-.298.414-.662-.055-6.683.269-13.364.97-20.01 1.558-14.911 4.437-24.878 4.476-25.014.031-.109.045-.222.045-.335 0 0 .557-3.763-5.339-3.851-5.896-.088-8.551 2.779-8.734 3.489 0 .038-.723 2.663-1.667 7.384a173.594 173.594 0 00-.998 5.362c-.882 5.056-1.605 12.308-1.944 20.644-.481 5.508-.655 10.14-.181 12.356z" fill="#E5BD9E"/><path d="M274.401 290.562c0 .353.19.637.417.637.22 0 .408-.289.41-.637h11.712c0 .353.192.637.419.637.231 0 .416-.298.414-.661-.055-6.684.269-13.364.97-20.011-1.935-9.462-9.42-16.7-11.219-18.327a173.142 173.142 0 00-.998 5.363c-.882 5.056-1.605 12.307-1.944 20.643-.481 5.508-.655 10.141-.181 12.356z" fill="#DFB697"/><path d="M286.208 290.44l-.033-.022c-.011 0-.017-.013-.022-.06a.324.324 0 00-.094-.249c-.373-.379-1.788-.363-3.582-.344-1.962.022-4.408.051-6.833-.374-1.256-.221-.407-9.903.485-18.955.152-1.543.271-2.757.326-3.472.58-7.665 3.946-21.379 3.968-21.491.15-.578 2.171-2.714 6.559-2.645 1.649.024 2.819.441 3.483 1.212a2.347 2.347 0 01.551 1.728.901.901 0 01-.034.258c-.017.073-3.05 17.762-3.544 22.01-.817 6.991-1.144 21.487-1.157 22.291v.071l-.073.042zm-2.616-.827c1.307 0 2.231.062 2.557.395 0-.335.022-.959.055-2.136.04-1.384.106-3.548.201-5.988.169-4.27.46-10.139.897-13.886.507-4.34 3.526-21.979 3.548-22.04a.785.785 0 00.029-.221 2.238 2.238 0 00-.522-1.631c-.635-.747-1.764-1.139-3.379-1.164h-.199c-4.172 0-6.087 1.995-6.228 2.544-.033.126-3.39 13.751-3.968 21.465h-.068.068a198.51 198.51 0 01-.326 3.476c-.595 6.035-1.836 18.596-.595 18.812 2.424.425 4.849.396 6.808.374.397.014.774 0 1.122 0z" fill="#D1A586"/><path d="M288.65 291.199h-45.919s1.069-4.329 27.663-3.683c18.821.456 18.256 3.683 18.256 3.683z" fill="#E5BD9E"/><path d="M292.388 336.4c-5.324-26.954-3.954-43.493-3.947-43.702.013-.415-.752-.792-1.164-.805-.412-.013-2.254-.123-2.466.232-.28.465-1.351 20.843 6.583 44.275h.994zm-42.875 0c5.325-26.95 3.949-43.493 3.949-43.7-.013-.415.752-.792 1.162-.805.41-.013 2.255-.123 2.466.232.28.465 1.351 20.843-6.583 44.275l-.994-.002z" fill="#D1A586"/><path d="M241.017 336.4c5.325-26.954 3.967-43.493 3.947-43.702-.013-.415.752-.792 1.164-.805.412-.013 2.255-.123 2.466.232.28.465 1.351 20.843-6.583 44.275h-.994zm42.817 0c-5.325-26.954-3.967-43.493-3.947-43.702.013-.415-.752-.792-1.164-.805-.412-.013-2.255-.123-2.466.232-.28.465-1.351 20.843 6.583 44.275h.994z" fill="#A0795F"/><path d="M242.702 292.58h45.92a.94.94 0 00.941-.941v-.617a.94.94 0 00-.941-.941h-45.92a.941.941 0 00-.941.941v.617c0 .52.422.941.941.941z" fill="#D1A586"/><path d="M306.094 256.332s3.793 1.543 6.491-2.329c0 .006-4.378-.736-6.491 2.329zm-.267-1.582s-.267-1.356-1.858-1.402c0 0 .599 1.373 1.858 1.402zm.8-7.937s1.838.198 2.528-1.818c0 0-1.992.222-2.528 1.818zm4.362-26.653c-3.712-.796-3.774-3.831-3.774-3.831 4.373 1.382 3.774 3.831 3.774 3.831zm.258-.693s2.316.941 3.967-1.422c-.005 0-2.682-.454-3.967 1.422z" fill="#6BB7BF"/><path d="M306.166 265.244l-.481.553a.124.124 0 01-.063.047.12.12 0 01-.139-.052.117.117 0 01-.018-.077c.029-15.629 2.012-29.514 3.679-37.707 1.82-8.942 3.663-14.227 3.683-14.28-.02.053-1.682 5.424-3.496 14.34-1.669 8.205-3.579 18.93-3.086 36.964a.312.312 0 01-.079.212z" fill="#6BB7BF"/><path d="M312.805 211.59c-.593.476-2.866 2.504-.662 4.069 0 0 1.686.533 2.244-.765a8.227 8.227 0 00.573-2.566.204.204 0 00-.011-.085.213.213 0 00-.111-.128.219.219 0 00-.083-.023 1.662 1.662 0 01-.476-.108c-.22-.079-.315-.394-.597-.465a1.67 1.67 0 00-.562-.061.573.573 0 00-.315.132z" fill="#F99746"/><path d="M311.546 215.099a1.363 1.363 0 01.421 1.397v.317a1.509 1.509 0 011.005-1.036s-.751.078-1.426-.678z" fill="#6BB7BF"/><path d="M310.989 220.16c-3.712-.796-3.774-3.831-3.774-3.831s2.943 1.613 3.774 3.831z" fill="#8AD8DB"/><path d="M307.425 218.081s-2.334.881-3.932-1.501c.002 0 2.68-.401 3.932 1.501z" fill="#6BB7BF"/><path d="M311.588 263.95l.47.56a.118.118 0 00.14.052.123.123 0 00.063-.049.125.125 0 00.017-.078c.287-15.627-1.419-29.55-2.922-37.773-1.64-8.977-3.377-14.3-3.395-14.353.018.053 1.574 5.457 3.207 14.408 1.506 8.239 3.198 18.999 2.354 37.028a.335.335 0 00.066.205z" fill="#6BB7BF"/><path d="M306.025 210.18c.584.489 2.81 2.561.58 4.079 0 0-1.697.501-2.228-.809a8.244 8.244 0 01-.521-2.574.22.22 0 01.21-.22c.163-.012.324-.046.478-.1.221-.077.322-.39.606-.454.183-.048.373-.065.562-.05a.58.58 0 01.313.128z" fill="#F99746"/><path d="M307.215 213.706a1.365 1.365 0 00-.451 1.389v.319a1.514 1.514 0 00-.981-1.062s.74.103 1.432-.646zm1.2 1.631s2.466.412 3.557-2.253c0 .007-2.707.148-3.557 2.253z" fill="#6BB7BF"/><path d="M313.438 261.126l-.346.641a.124.124 0 01-.052.047.116.116 0 01-.069.01.118.118 0 01-.063-.029.116.116 0 01-.037-.058c-3.381-15.259-4.472-29.244-4.628-37.604-.175-9.123.473-14.683.48-14.738 0 .055-.461 5.66-.284 14.767.161 8.375.635 19.257 5.038 36.75a.313.313 0 01-.039.214z" fill="#6BB7BF"/><path d="M308.218 207.323c-.474.593-2.243 3.066.243 4.113 0 0 1.763.154 2.023-1.235a8.21 8.21 0 000-2.627.224.224 0 00-.086-.146.23.23 0 00-.165-.041 1.748 1.748 0 01-.49 0c-.22-.033-.392-.318-.683-.322a1.669 1.669 0 00-.562.06.594.594 0 00-.28.198z" fill="#F99746"/><path d="M307.753 211.015a1.362 1.362 0 01.718 1.271l.062.311a1.514 1.514 0 01.752-1.234s-.708.242-1.532-.348zm2.696 1.582s0-1.951 1.681-2.563c0 0 .371 1.628-1.681 2.563z" fill="#6BB7BF"/><path d="M306.499 209.461s.049-1.49-1.322-1.92c-.007 0-.338 1.386 1.322 1.92zm4.52 8.961c.049.042.719-1.45-.641-2.645 0 0-.569 1.594.641 2.645z" fill="#ED9F4A"/><path d="M311.972 218.306a.804.804 0 01.696-.851s.119.626-.696.851zm-7.047-2.528s-.595-1.234-2.504-1.021c0-.004.285 1.321 2.504 1.021z" fill="#6BB7BF"/><path d="M315.476 267.073h-12.237a1.345 1.345 0 01-1.012-.471 1.342 1.342 0 01-.31-1.072l5.695-39.259a.747.747 0 01.736-.639h1.821a.801.801 0 01.787.679l5.829 39.256a1.325 1.325 0 01-1.309 1.506z" fill="#F99746"/><path d="M305.95 265.885l3.024-40.242a.745.745 0 00-.639.628l-5.695 39.259c-.028.191-.014.387.041.572a1.34 1.34 0 001.294.971h2.447a1.453 1.453 0 01-.472-1.188z" fill="#FFB278"/><path d="M425.959 262.786s-8.395 9.587-10.112 9.431c-1.763-.159-2.828-.712-4.355 0-1.102.513-4.567 3.306-3.635 3.119.933-.188 2.616-.401 3.062-.441.612-.06 1.595-.073 2.263-.188.423-.074 1.949-.116 2.456-.134 2.204-.073 12.66-6.171 12.66-6.171l-2.339-5.616z" fill="#FFB27D"/><path d="M412.155 252.546c-.333-.207-.983-.126-1.452-.027v-.681a3.841 3.841 0 00-.029-.441h-7.053a3.841 3.841 0 00-.029.441v1.384a3.556 3.556 0 004.416 3.45 3.563 3.563 0 001.809-1.104s1.677-.415 2.204-1.041c.526-.626.685-1.635.134-1.981zm-.372 1.28c-.179.461-.979.708-1.374.805a3.51 3.51 0 00.285-1.171c.242-.335.628-.528.91-.478.282.051.395.265.17.844h.009z" fill="#C45446"/><path d="M404.156 251.838v1.384a3.57 3.57 0 003.558 3.558c.16 0 .32-.012.478-.036a3.567 3.567 0 01-3.086-3.526v-1.384c.001-.148.011-.295.029-.441h-.956a3.685 3.685 0 00-.023.445z" fill="#E37970"/><path d="M408.585 256.469h-2.903v.434h2.903v-.434z" fill="#C45446"/><path d="M431.784 214.098s.38-4.816 7.307-3.566c1.831.331 3.086-2.934 6.088-1.763 6.453 2.504 6.832-.805 8.699 3.839.78 1.944 5.746 4.206 4.229 7.565-1.516 3.359 1.023 5.618-.76 8.249-.923 1.362-.549 3.796-4.902 3.882-2.166.044-5.543 4.062-7.976 4.789-2.433.727-9.738-.322-9.462-3.659.22-2.605-2.821-2.387-4.688-5.382-1.629-2.616 1.28-3.275-.276-7.505-1.137-3.108 1.83-3.861 1.741-6.449z" fill="#1C468A"/><path d="M393.707 332.567c.148 1.611-2.094 2.003-4.692 2.131-2.599.128-1.812.661-5.372 1.307-3.559.646-4.985-.331-5.243-.811-.221-.425 1.426-1.102 3.189-1.847l.661-.289c1.984-.881 3.099-2.645 4.646-4.304 1.466-1.563 2.866-6.568 2.866-6.568l4.835-1.034s-1.357 4.505-1.829 6.429c-.278 1.131.132 2.396.496 3.359.22.52.369 1.067.443 1.627z" fill="#FFB27D"/><path d="M389.013 334.698c-2.597.13-1.812.662-5.372 1.307-3.559.646-4.985-.33-5.243-.811-.221-.425 1.426-1.102 3.189-1.847l.027.029a10.13 10.13 0 005.391.064c2.356-.639 4.628-2.046 6.255-2.5.219.521.367 1.068.441 1.627.161 1.611-2.088 2.01-4.688 2.131z" fill="#C65447"/><path d="M436.539 271.583s-26.808 1.205-32.858 5.025c-6.05 3.819-15.757 48.302-15.757 48.302s.599.48 1.937.624c1.245.136 3.985-.596 3.985-.596s13.947-19.904 14.93-24.919c.983-5.014.741-9.477 2.978-9.607 2.237-.13 30.125 3.39 34.344-4.04 4.218-7.43-9.559-14.789-9.559-14.789z" fill="#163560"/><path d="M404.765 332.747c.15 1.612-2.094 2.004-4.69 2.132-2.597.128-1.814.661-5.372 1.307-3.557.646-4.987-.331-5.243-.811-.221-.426 1.424-1.102 3.187-1.847l.661-.289c1.984-.882 3.099-2.645 4.646-4.305 1.466-1.562 2.866-6.568 2.866-6.568l4.849-1.033s-1.358 4.505-1.83 6.429c-.278 1.13.132 2.396.496 3.359a6.37 6.37 0 01.43 1.626z" fill="#FFB27D"/><path d="M400.075 334.879c-2.599.13-1.814.661-5.372 1.307-3.557.645-4.987-.331-5.243-.812-.221-.425 1.424-1.102 3.187-1.847l.029.029a10.14 10.14 0 005.391.066c2.354-.641 4.628-2.047 6.255-2.501a6.37 6.37 0 01.441 1.626c.152 1.609-2.085 2.004-4.688 2.132z" fill="#C65447"/><path d="M446.931 272.217s-28.553 1.351-34.451 5.402c-5.899 4.052-13.866 48.88-13.866 48.88s.617.458 1.961.551c1.248.086 3.968-.752 3.968-.752s13.162-20.431 13.949-25.481c.787-5.049.373-9.51 2.603-9.715 2.231-.205 30.233 2.204 34.163-5.376 3.93-7.58-8.327-13.509-8.327-13.509z" fill="#1C468A"/><path d="M455.476 235.736a.25.25 0 00-.035-.044 4.537 4.537 0 00-.798-.699c-2.332-1.631-6.5-1.984-6.5-1.984s-.456-.042-1.177-.075a21.656 21.656 0 01-1.362-6.577l-.412.113-6.947 1.862s.306 2.204.451 4.292c.031.458.056.908.067 1.322-.203.073-4.525.681-5.464 1.691-.939 1.009-2.819 7.74-3.293 8.933l26.746.44s.659-6.986-1.276-9.274z" fill="#FFB27D"/><path d="M456.457 283.575c-3.165.302-13.84-6.143-17.395-8.239l-.18-.106c-1.482-.882-3.564-1.281-5.546-1.609-2.524-.412-4.878-.692-5.634-1.593-.897-1.074 1.744-2.264 3.866-3.501 1.067-.621 2.006-1.258 2.299-1.893.221-.498.21-1.591.058-2.991a23.5 23.5 0 00-.097-.815c-.186.382-.399.75-.637 1.102a16.061 16.061 0 01-2.266 2.645c-1.007.954-2.01 1.666-2.645 1.816-.42.094-.859.054-1.256-.113-1.102-.44-2.185-1.657-3.035-2.834a18.93 18.93 0 01-.562-.82c-.582-.882-.994-1.611-1.151-1.783-.474-.525 1.907-1.565 2.883-2.343s4.814-15.924 4.814-15.924c.474-1.193 2.351-7.919 3.293-8.933 0 0 3.665 4.476 8.417 4.22 4.752-.255 12.803-4.807 12.929-4.877.327.193.615.448.846.749 1.933 2.288 1.263 9.277 1.263 9.277s-3.7 16.31-3.7 17.95c0 3.017 2.495 9.954 3.685 14.948.773 3.167 1.007 5.55-.249 5.667z" fill="#6BB7BF"/><path d="M438.231 228.341s.309 2.204.452 4.292c3.932-.373 5.775-4.106 6.496-6.154l-6.948 1.862z" fill="#F4A269"/><path d="M437.048 230.393s9.33-.467 8.95-6.273c-.379-5.805.567-9.777-5.406-9.724-5.973.053-6.987 2.343-7.331 4.313-.344 1.971 1.349 11.658 3.787 11.684z" fill="#FFB27D"/><path d="M436.653 216.463s2.231-.522 2.96.562c.73 1.085.208 1.693 1.836 2.149 1.629.456 2.18.423 2.017 1.563-.163 1.139 1.635 1.984 1.713 2.894.077.91.824 1.366 1.542 1.432.719.067.39-11.745-2.376-12.267-2.766-.523-5.433.099-6.246.749-.813.65-1.446 2.918-1.446 2.918z" fill="#1C468A"/><path d="M436.653 216.463s-2.169-.152-2.559 1.084c-.39 1.237.13 1.53-.423 2.277-.553.747-.234 2.076-.234 2.076s-4.289-7.899.234-8.421c4.523-.523 4.404.401 2.982 2.984z" fill="#1C468A"/><path d="M433.819 260.961c-.619 1.863-1.726 3.91-2.887 5.612-1.008.954-2.01 1.666-2.645 1.816-.42.094-.859.054-1.256-.113-1.102-.44-2.185-1.657-3.035-2.834-.201-.278-.39-.555-.562-.82 2.964-2.378 8.582-7.82 9.166-15.268.809-10.167 1.263 12.079 1.219 11.607z" fill="#599DAD"/><path d="M427.041 268.281c1.034-1.579 3.139-3.135 6.156-4.356-1.389 2.081-3.767 4.188-4.9 4.468a2.08 2.08 0 01-1.256-.112zm24.668-19.574s-2.329 23.413-12.64 26.629l-.181-.106c-1.481-.881-3.564-1.28-5.545-1.609-2.524-.412-4.878-.692-5.634-1.593-.897-1.074 1.744-2.264 3.866-3.5 1.067-.622 2.006-1.259 2.299-1.894.22-.498.209-1.591.057-2.991 10.007-3.702 17.778-14.936 17.778-14.936z" fill="#599DAD"/><path d="M454.332 241.773c-1.08-4.869-5.98-2.076-5.98-2.076-1.699-.386-14.168 19.823-15.166 20.277-.846.388-12.343-2.949-15.825-3.967-.902-.706-4.067-3.163-4.629-3.205-.648-.049-4.972 1.062-4.946 1.75.027.688 1.041 1.693 2.645 1.948 1.21.192 3.262.99 4.571 1.188 0 0 12.683 8.64 18.074 9.698 4.866.937 22.336-20.751 21.256-25.613z" fill="#FFB27D"/><path d="M425.587 258.29s-2.923 7.511.579 10.359c3.503 2.847 11.104 1.893 19.429-9.718s11.715-17.932 7.392-19.777c-4.322-1.845-7.892 1.049-10.11 5.565-2.305 4.695-6.552 11.195-9.1 11.442-2.548.246-8.19 2.129-8.19 2.129z" fill="#6BB7BF"/><path d="M352.286 187.68v1.135s-.309 3.547 4.058 4.065c4.366.518 7.95.441 7.831-2.286-.393-2.12-1.102-5.409-1.126-7.163a12.27 12.27 0 01.154-2.123l-8.462-.169-2.492.407.037 6.134z" fill="#FFB27D"/><path d="M352.255 181.546l.031 6.134a7.148 7.148 0 003.051.673c3.89 0 6.405-2.852 7.714-4.922-.01-.711.042-1.421.154-2.123l-8.461-.169-2.489.407z" fill="#E2915A"/><path d="M363.857 179.946c-.98 5.29-7.8 5.112-10.747 4.779a17.528 17.528 0 01-1.351-.198c-.934-.25-1.457-1.722-1.699-3.653-.481-3.817.128-9.422.771-10.855.972-2.157 2.799-4.489 9.667-2.805 6.868 1.684 4.62 5.962 3.359 12.732z" fill="#FFB27D"/><path d="M369.438 336.401h-9.663a23.39 23.39 0 01.772-3.467c.146-.477.329-.943.546-1.393.939-1.875 6.908-.681 6.908-.681s.555.474.987 2.288a19.19 19.19 0 01.45 3.253zm-29.2-3.048c-.026 1.323-.191 2.559-.661 3.049h-19.111c.242-.69.93-1.731 2.892-2.05 2.23-.359 5.706-1.433 7.734-3.58a5.745 5.745 0 001.498-2.711c.9-4.002 7.435 1.228 7.435 1.228.157 1.349.228 2.707.213 4.064z" fill="#233862"/><path d="M352.952 290.079a30.564 30.564 0 00-.481 3.527c-.606 11.851-9.975 38.948-11.65 39.578-2.594.978-6.676-1.102-8.816-1.781a1.83 1.83 0 01-1.285-2.081c4.628-21.328 6.343-52.04 6.964-70.221.313-9.16 1.885-15.486 1.885-15.486s22.849-6.096 22.984 1.616c.125 6.828-7.565 33.583-9.601 44.848z" fill="#2B478B"/><path d="M352.952 290.079l-15.263-30.974c.313-9.16 1.884-15.485 1.884-15.485s22.85-6.097 22.984 1.615c.122 6.824-7.568 33.579-9.605 44.844z" fill="#233862"/><path d="M347.867 245.262l12.078 87.543s5.306 1.28 9.432.255c0 0 3.526-46.558 3.242-57.814-.284-11.256 2.537-30.121-.648-32.202-3.185-2.08-24.104 2.218-24.104 2.218z" fill="#2B478B"/><path d="M348.724 164.99a22.753 22.753 0 006.588-1.783c2.894-1.259 6.544.127 7.73.751a1.762 1.762 0 00-.289-.712c.304.22.52.54.611.904.055.04.079.068.064.077.331-.061.671-.039.992.064 0 0-.271-.037-.368.137a.256.256 0 01-.045.048c4.514 2.18 4.931 9.314 3.478 10.963-1.747 1.984-3.843 6.458-3.843 6.458s-.763-1.056-.441-2.804c.322-1.747-1.193-1.747-3.099-2.541-1.907-.793-.318-3.019-1.984-4.368-1.666-1.349-7.782-.556-7.714-1.589-2.268-.827-1.68-5.374-1.68-5.605z" fill="#233862"/><path d="M365.209 192.115l-2.782 59.668s-23.211.379-22.547-4.873c.663-5.252 8.375-52.968 8.375-52.968l16.954-1.827z" fill="#E9F3FE"/><path d="M373.498 225.936c-1.38 4.142 1.223 18.043 2.151 22.753.205.996.34 1.585.34 1.585-3.214 5.228-14.988 5.162-14.988 5.162-2.266-10.007-3.443-25.945-3.443-25.945l9.037-39.595 11.364 10.504s-.86 6.407-1.924 12.927c-.838 5.162-1.79 10.414-2.537 12.609z" fill="#22407A"/><path d="M354.188 180.815s-.22.681-1.939.441c0 0-1.444-.207-1.338-.968-.007-.009 1.446-.436 3.277.527z" fill="#fff"/><path d="M341.138 192.966v.024c-.549.531-16.043 15.576-19.045 21.467-3.057 5.978 13.967 17.886 13.967 17.886s1.102.441 1.856.263c-.802 6.612-1.702 12.706-1.168 15.309.963 4.706 5.316 6.286 5.316 5.922 0-.114 1.591-17.094 2.455-25.955 1.854-18.996 6.496-37.865 6.496-37.865-5.074.526-9.877 2.949-9.877 2.949zm-9.226 24.072a.141.141 0 01-.022-.09c0-.86 3.282-2.762 6.833-5.003l.068-.069c-.064 1.832-.057 3.628.051 5.301.202 3.101-.022 6.809-.399 10.58-1.68-2.643-6.2-9.744-6.531-10.719z" fill="#22407A"/><path d="M365.869 189.825c.029-.571-2.669-1.358-2.669-1.358s-3.085 4.281-8.172 4.356c0 0 1.448 2.821 3.156 3.55 0 .009 7.518-3.167 7.685-6.548zm-10.841 2.896s-2.696-1.596-2.704-3.328c0 0-1.742-.22-2.5.626 0 0-.639 2.969.207 4.692 0 0 3.882-.592 4.997-1.99z" fill="#D9E9F9"/><path d="M356.857 192.465l-3.654-.882s-.478.04-.465.635c.013.595 1.029 2.334 1.479 2.475.45.142 3.498-1.024 2.64-2.228z" fill="#BA4C43"/><path d="M365.444 189.53c.029-.569-1.796-1.744-1.796-1.744s-3.527 4.131-8.62 4.205c0 0 1.448 2.822 3.156 3.551 0 0 7.093-2.631 7.26-6.012zm-10.416 2.461s-2.726-1.445-2.735-3.176c0 0-1.644.723-2.405 1.568 0 0-.703 1.873.144 3.597 0 0 3.881-.591 4.996-1.989z" fill="#E9F3FE"/><path d="M347.885 233.15a5.614 5.614 0 001.794 3.641l1.617 1.49a.96.96 0 00.718.248.936.936 0 00.669-.358l2.006-2.546a3.387 3.387 0 00.707-2.411c-.187-1.926-.538-5.64-.815-9.222-.221-2.902-.41-5.73-.426-7.438-.044-5.477 1.043-22.945 1.043-22.945l-1.323.069a70.411 70.411 0 00-4.968 16.006 61.086 61.086 0 00-.89 7.196s-.692 9.971-.132 16.27z" fill="#C65447"/><path d="M347.885 233.15a5.614 5.614 0 001.794 3.641l1.617 1.49a.945.945 0 001.09.139.95.95 0 00.297-.249l2.006-2.546a3.387 3.387 0 00.707-2.411c-.187-1.926-.538-5.64-.815-9.222-3.631-4.077-5.101-9.711-5.665-14.308a61.052 61.052 0 00-.899 7.196s-.692 9.971-.132 16.27z" fill="#BA4C43"/><path d="M334.969 233.311a2.505 2.505 0 011.778-2.425 2.498 2.498 0 011.063-.087 1.552 1.552 0 011.056.582c1.033 1.377 2.019 5.386.185 5.574-.747.075-1.706-.441-2.445-1.01-.738-.568-1.637-1.463-1.637-2.404v-.23z" fill="#FFB27D"/><path d="M375.649 248.689c-3.328-3.465-9.078-10.278-8.873-15.869.271-7.834 9.257-19.491 9.257-19.491-.838 5.162-1.79 10.414-2.537 12.61-1.378 4.139 1.225 18.051 2.153 22.75z" fill="#233862"/><path d="M375.546 235.063s-2.394 1.197-3.846.598c-1.453-.6-3.161-1.047-4.783.802-1.622 1.849-1.966 3.13-1.624 3.813.341.683 4.126.428 4.754 0 .628-.427 1.622-1.479 2.252-1.296 1.737.505 3.203-.822 4.023-1.878.493-.637-.84-.945-.776-2.039z" fill="#FFB27D"/><path d="M366.595 189.896s9.528 1.053 11.774 5.203c2.246 4.151 13.934 20.968 13.551 27.957-.384 6.989-15.94 14.824-15.94 14.824s-3.445-1.455-3.498-3.022c-.053-1.567 10.756-10.93 10.101-12.677-.655-1.748-12.563-15.565-13.703-20.123-1.139-4.558-2.285-12.162-2.285-12.162z" fill="#22407A"/><path d="M338.793 211.876l-.068.069c-3.553 2.241-6.833 4.143-6.833 5.003-.476-1.517 4.142-7.855 5.636-9.145 1.494-1.289 1.265 4.073 1.265 4.073zm24.855-24.09s-7.236 30.299-6.083 41.712c0 0 2.66-12.195 9.058-22.186 0 0-2.334-2.054-2.204-2.812 0 0 1.735-.514 3.417-.168 0 0-.185-13.059-1.235-14.439-1.049-1.38-2.953-2.107-2.953-2.107zm-11.355 1.03c.147-.089-7.168 29.605-7.781 39.067 0 0 .725-16.883.661-21.75 0 0 3.005-1.591 3.005-2.149s-3.205-2.067-3.205-2.067 2.028-10.399 3.136-11.545c1.109-1.146 4.184-1.556 4.184-1.556z" fill="#233862"/><path d="M258.195 320.054a1.357 1.357 0 01.24 1.451c-.35.967-1.507 2.047-2.85 3.125-.172.139-.324.264-.456.381l-.103.093-.08.07c-1.252 1.155-.78 1.42-3.03 3.761-2.564 2.669-4.331 2.717-4.834 2.475-.423-.207.441-1.622 1.397-3.214.047-.077.091-.154.139-.22.128-.221.254-.428.379-.639 1.122-1.916.836-2.815.569-5.663-.22-2.316-3.604-12.938-3.604-12.938l4.918-.846s1.479 8.457 3.11 9.76c.881.694 1.849.703 2.686 1.219.06.035.119.07.175.11.494.296.946.658 1.344 1.075z" fill="#FFB27D"/><path d="M258.195 320.054a1.353 1.353 0 01.24 1.45c-.441.968-1.556 2.041-2.865 3.117-.17.141-.32.269-.441.39l-.104.093-.079.07c-1.252 1.155-.78 1.42-3.03 3.76-2.564 2.67-4.331 2.718-4.834 2.476-.423-.208.441-1.623 1.397-3.214a10.951 10.951 0 004.572-3.37c1.542-1.97 2.574-4.503 3.625-5.969.06.036.119.071.174.111a6.37 6.37 0 011.345 1.086z" fill="#C65447"/><path d="M218.557 316.984c-.302 1.516-2.466 1.265-4.882.675-2.416-.591-1.843.11-5.29-.272-3.447-.381-4.481-1.661-4.586-2.173-.093-.454 1.606-.612 3.429-.824.22-.024.459-.053.69-.082 2.056-.258 3.564-1.587 5.433-2.678 1.763-1.031 4.408-5.241 4.408-5.241l4.717.375s-2.475 3.747-3.432 5.393c-.564.961-.533 2.233-.463 3.214a6.05 6.05 0 01-.024 1.613z" fill="#FFB27D"/><path d="M213.675 317.658c-2.425-.59-1.843.111-5.29-.271-3.447-.381-4.481-1.662-4.586-2.173-.093-.454 1.606-.613 3.429-.824l.015.035a9.701 9.701 0 004.927 1.543c2.334.055 4.804-.613 6.416-.587a6.1 6.1 0 01-.038 1.614c-.293 1.505-2.457 1.254-4.873.663z" fill="#C65447"/><path d="M229.053 247.712s-1.124-2.753-2.361-2.865c-1.236-.112-5.168-.732-5.45-.17-.283.562 0 2.586.844 3.306.844.721 6.068 1.911 6.068 1.911l.899-2.182z" fill="#FFB27D"/><path d="M236.632 286.826l10.165 27.355a9.289 9.289 0 003.057-.28c1.378-.397 2.958-1.44 2.958-1.44s-2.521-26.265-7.145-31.738c-4.624-5.473-9.035 6.103-9.035 6.103z" fill="#AA413E"/><path d="M276.825 275.759s-29.206-9.876-35.719-7.773c-6.513 2.102-26.063 41.024-26.063 41.024s.441.586 1.647 1.038c1.12.421 3.833.395 3.833.395s17.65-15.131 19.75-19.544c2.101-4.412 2.943-8.613 5.043-8.195 2.101.419 27.11 10.298 32.781 4.408 5.671-5.889 4.188-13.526 4.188-13.526l-5.46 2.173z" fill="#C65447"/><path d="M258.986 229.815c-.465-.963-.987-2.673-1.243-5.73.04.302.566 4.148 2.045 6.326 6.075 3.987 17.716 17.304 17.485 19.836 0 0 4.102-6.956 4.172-6.998 0 0 7.565-9.618-1.401-15.129-4.556-2.801-4.532-6.391-4.342-9.517.189-3.125-1.244-16.563-10.371-13.046 0 0-1.465-.661-2.122-.553.298.057.576.189.809.384-1.058-.064-2.572.015-3.833.732-3.348 1.902-6.341 18.961-1.199 23.695z" fill="#B5453C"/><path d="M260.147 230.617c-.031.014 2.932 1.543 5.162.942 2.096-.571 3.465-3.289 3.436-3.295-.881-.177-1.144-1.398-1.124-6.639l-.401.077-6.749 1.349s.152 2.122.157 4.124c.006 1.67-.097 3.262-.481 3.442z" fill="#FFB27D"/><path d="M260.472 223.051s.152 2.122.156 4.124c3.778-.106 5.775-3.551 6.593-5.462l-6.749 1.338z" fill="#ED975D"/><path d="M267.917 220.968s1.984-3.127 2.455-5.801c.338-1.909-.634-8.986-7.745-7.965a9.65 9.65 0 00-4.007 1.523c-1.543 1.042-3.771 3.293-1.28 9.477l.648 2.085 9.929.681z" fill="#B5453C"/><path d="M259.209 224.934s8.937.147 8.941-5.418c.005-5.565 1.164-9.297-4.54-9.625-5.704-.329-6.815 1.794-7.273 3.65-.459 1.856.548 11.212 2.872 11.393z" fill="#FFB27D"/><path d="M259.542 209.754s2.446 6.531 6.2 7.494c3.753.963 5.382-.04 5.382-.04a10.631 10.631 0 01-3.476-6.282s-6.251-4.28-8.106-1.172z" fill="#B5453C"/><path d="M260.147 210.285s-1.827 1.457-2.272 2.866c-.445 1.408-.646 4.335-1.497 4.236 0 0-1.844-4.439.221-6.95 2.204-2.653 3.548-.152 3.548-.152z" fill="#B5453C"/><path d="M283.687 275.913c-.482 1.338-1.959 1.682-3.941 1.451-3.777-.441-9.387-2.978-13.429-4.73-6.171-2.674-8.966-.163-10.928-1.863-1.961-1.699 2.242-5.481-1.402-23.039-1.234-5.951 6.593-18.719 6.593-18.719s.676 3.696 8.155-.749c.264-.157 3.213 4.207 6.052 9.59 3.13 5.935 6.128 13.107 5.246 16.804-1.664 7.044 5.056 17.368 3.654 21.255z" fill="#699DEE"/><path d="M260.579 229.013l-4.615 18.944s-.575 1.023-1.477 2.48c-2.113 3.418-6.026 9.224-8.532 9.814-1.234.291-3.863-.738-6.771-2.204-5.51-2.779-12.001-7.132-12.001-7.132-.418-2.522 1.764-4.578 1.764-4.578s13.169 4.95 14.476 5.043c2.852.205 5.752-13.555 8.417-18.142 1.938-3.321 8.739-4.225 8.739-4.225z" fill="#699DEE"/><path d="M261.197 221.561s-.168.705-1.926.597c0 0-1.477-.09-1.433-.868 0-.002 1.433-.553 3.359.271z" fill="#fff"/><path d="M283.687 275.913c-.483 1.338-1.96 1.682-3.941 1.451-2.614-1.14-13.908-5.51-13.78-8.479.187-4.389 2.171-4.53.769-9.945-1.124-4.351 9.31-12.438 10.974-14.196 3.13 5.937 3.216 6.217 2.334 9.918-1.675 7.04 5.045 17.364 3.644 21.251zm-29.2-25.481c-2.113 3.418-6.026 9.224-8.532 9.815-1.234.291-3.863-.739-6.77-2.204 2.122.546 4.187.531 6.186.337 2.174-.221 2.804-2.866 6.236-6.864 2.226-2.592 2.772-1.939 2.88-1.084z" fill="#4A75CB"/><path d="M264.951 258.834s-1.892-1.47-3.679-1.122c-1.788.348-2.66 1.578-2.59 2.138.071.56 1.014 2.136 2.381 2.277 1.366.141 5.254-.842 5.254-.842l-1.366-2.451z" fill="#FFB27D"/><path d="M268.746 228.264s7.284.44 9.803 3.967c3.551 4.95 9.714 25.157 8.034 29.781l-22.157-.095s-.538-2.508.22-3.722c.758-1.215 12.887-3.176 13.445-3.747.558-.571-7.005-10.928-7.005-12.61 0-1.681-2.34-13.574-2.34-13.574z" fill="#699DEE"/><path d="M263.048 267.11h-26.824l-4.835-16.863h26.783l4.876 16.863z" fill="#1C468A"/><path d="M271.384 266.454h-35.069v.656h35.069v-.656zm-26.643-8.05c-.17-.593.174-1.073.767-1.073a1.539 1.539 0 011.38 1.073c.17.593-.172 1.073-.765 1.073a1.542 1.542 0 01-1.382-1.073z" fill="#163560"/><path d="M178.76 228.839s2.932-2.396 3.985-2.409c1.054-.014 3.055-.538 2.976-.196-.08.341-1.764.789-1.475.947.289.159 2.74-.5 3.423-.105.683.394 2.292 2.027 1.001 2.739-1.292.712-5.162 1.843-6.172 1.713-1.009-.13-3.264-.291-3.264-.291l-.474-2.398zm-37.447 89.108l2.46 10.357 3.683-.022.135-10.335h-6.278zm30.983.441l6.998 9.916 2.726-3.502-4.212-7.779-5.512 1.365z" fill="#FFB27D"/><path d="M157.958 193.157a.33.33 0 000-.077 32.669 32.669 0 00-.176-1.543 33.51 33.51 0 00-.881-4.381c-.221-.765-.441-1.479-.695-2.121-.039-.099-.077-.191-.112-.286-.6-1.462-1.281-2.511-1.984-2.905-1.272-.723-2.795-.802-3.861-.741.235-.195.515-.328.815-.385-.661-.1-2.136.557-2.136.557-9.195-3.542-10.639 9.993-10.445 13.139.194 3.145-3.085 4.172-7.873 6.649-9.127 4.728-9.929 11.06-9.929 11.06.071.041.144.09.221.146.451-.767 1.386-2.204 2.171-2.425a33.088 33.088 0 00-1.266 3.086c1.153.882 2.731 2.204 4.437 3.696 2.284 1.984 4.792 4.265 6.8 6.105-.013-.628.011-1.52.24-1.983l.383 2.31.051.302a421.025 421.025 0 012.945 2.726l.22.22c-.075-.806 1.06-2.713 2.835-5.069a67.255 67.255 0 012.254-2.817c.243-.289.488-.577.741-.881a105.56 105.56 0 012.147-2.405 89.453 89.453 0 014.137-4.232c2.001-1.915 3.93-3.551 5.492-4.578a9.619 9.619 0 00.922-1.807c.063-.163.125-.331.183-.496a22.67 22.67 0 00.945-3.983c-.1 1.37-.321 2.728-.661 4.058-.06.22-.119.412-.179.597a8.555 8.555 0 01-.41 1.032 6.174 6.174 0 001.153-1.479c1.558-2.687 1.889-6.969 1.516-11.089z" fill="#163560"/><path d="M154.143 206.521c.031.013-2.953 1.562-5.199.95-2.112-.578-3.491-3.307-3.461-3.322.882-.176 1.151-1.406 1.133-6.687l.404.079 6.797 1.347s-.154 2.14-.159 4.155c-.004 1.692.097 3.297.485 3.478z" fill="#FFB27D"/><path d="M146.455 184.063s3.355-3.568 7.564-.18c0 0-2.45-.426-7.564.18z" fill="#E37970"/><path d="M153.817 198.888s-.154 2.14-.159 4.155c-3.804-.108-5.814-3.577-6.638-5.51l6.797 1.355z" fill="#ED975D"/><path d="M146.319 196.803s-1.984-3.15-2.473-5.843c-.342-1.924.637-9.05 7.8-8.025 1.443.2 2.822.722 4.036 1.527 1.543 1.049 3.8 3.317 1.289 9.537l-.661 2.101-9.991.703z" fill="#163560"/><path d="M180.909 322.084l-3.601.11-3.901.119s-9.008-10.03-14.062-26.109a49.798 49.798 0 00-.373-1.135c-2.766-8.062-8.498-18.186-11.52-27.348a151.508 151.508 0 01-1.301-4.133c-.123-.416-.244-.824-.359-1.227-2.228-7.737-2.865-12.815-3.467-18.243l21.82.176s3.52 37.057 16.764 77.79z" fill="#2B478B"/><path d="M161.088 231.757c-.055 10.381 1.523 14.836 1.523 14.836s-9.34 4.745-20.442 1.252c-.13-.042-9.193-2.11-9.193-2.11.187-.421 1.838-7.416 2.019-7.802 2.345-5.032 4.123-7.24 4.408-8.788.474-2.874.565-5.799.271-8.697a69.676 69.676 0 00-2.694-13.665c3.027-.69 5.859-1.898 9.008-3.086.723.902 2.938 1.845 4.849 1.803 2.204-.048 2.93-.996 2.815-2.03a74.565 74.565 0 014.236 2.55c2.004 3.481 6.066 6.857 6.359 12.195.075 1.325-3.156 13.251-3.159 13.542z" fill="#E7F1FD"/><path d="M155.086 200.79s-8.999.148-9.006-5.457c-.006-5.605-1.17-9.363 4.576-9.698 5.746-.335 6.864 1.805 7.322 3.676.458 1.872-.549 11.303-2.892 11.479z" fill="#FFB27D"/><path d="M154.754 185.507s-2.458 6.577-6.245 7.549c-3.786.972-5.422-.039-5.422-.039a10.717 10.717 0 003.503-6.333s6.305-4.307 8.164-1.177z" fill="#163560"/><path d="M154.143 186.041s1.84 1.47 2.29 2.896c.45 1.426.661 4.366 1.505 4.267 0 0 1.858-4.47-.22-7-2.222-2.68-3.575-.163-3.575-.163z" fill="#163560"/><path d="M143.65 327.724a10.007 10.007 0 01-.469 4.245s-.604 2.749 2.102 2.799c2.707.051 3.368-.205 3.062-1.889a432.372 432.372 0 00-.882-4.597l-3.813-.558z" fill="#FFB27D"/><path d="M148.701 336.4h-5.924c-.243-1.219.293-3.818.383-4.318a.828.828 0 01.016-.084.113.113 0 010-.026c3.061 2.805 4.979-.073 4.979-.073v.015c.458 1.1.553 4.056.546 4.486z" fill="#C45446"/><path d="M188.539 333.155s-4.987-5.537-6.519-8.354l-3.716 1.9 8.291 7.785 1.94-.254.004-1.077z" fill="#FFB27D"/><path d="M191.707 336.4h-6.275c-.924 0-1.662-1.543-2.656-3.527-.408-.815-1.322-1.263-2.259-1.51l.024 5.032h-1.448l-1.333-5.32c-.882-1.625-.071-3.097.551-4.378.723 0 2.669.494 6.352 4.644 1.212 1.365 2.548 1.849 3.877 1.81l.055.028c3.061 1.382 3.112 3.221 3.112 3.221z" fill="#C45446"/><path d="M177.307 322.194l-3.901.119s-9.008-10.03-14.062-26.109a51.47 51.47 0 00-.372-1.135c-2.766-8.063-8.499-18.186-11.521-27.348a154.92 154.92 0 01-1.3-4.133 91.602 91.602 0 01-.359-1.227l3.211-2.438s9.647 15.62 12.631 30.319c2.594 12.768 12.984 28.13 15.673 31.952z" fill="#233862"/><path d="M149.339 291.611c.055 7.147-.307 23.583-1.237 30.385h-3.454c-1.911 0-2.865-.027-2.865-.027-2.334-11.831-3.996-21.617-5.206-30.052-.992-6.923-1.873-12.856-2.552-17.963-.684-5.142-1.157-9.447-1.323-13.084a78.146 78.146 0 01-.055-1.67 32.208 32.208 0 010-1.585l18.849-1.838c-.251 12.526-2.186 31.679-2.157 35.834z" fill="#2B478B"/><path d="M144.648 321.996c-1.911 0-2.865-.027-2.865-.027-2.334-11.831-3.996-21.617-5.206-30.052-.992-6.923-1.874-12.856-2.552-17.963-.684-5.142-1.158-9.447-1.323-13.083l6.919 4.068s-4.408 1.559-2.731 13.348c1.677 11.79 5.413 42.04 7.758 43.709z" fill="#233862"/><path d="M145.538 260.754s-1.322 4.798-5.922 4.187c-4.6-.61-11.124-3.37-11.124-3.37s1.962-6.204 4.408-14.352c2.956-9.868 3.69-23.734 5.416-31.757.482-2.248 3.747-2.977 3.859-4.322l3.811-7.394s5.684 12.755 5.99 15.97c.307 3.216-6.438 41.038-6.438 41.038z" fill="#F99746"/><path d="M142.325 229.185c-.205 5.208-2.025 14.088-9.345 17.992-.026.015-.057.028-.086.041 2.956-9.867 2.916-19.331 4.642-27.354 3.934-.82 4.902 6.455 4.789 9.321z" fill="#ED7D2B"/><path d="M189.858 226.073h-7.053c0 .033 0 .168-.02.357a66.874 66.874 0 00-.064 2.008c.1 1.497 1.14 2.321 2.147 2.716h.016c.226.091.459.165.696.22.157.033.316.057.476.073.092.01.184.015.276.015.498 0 .991-.106 1.445-.311a3.565 3.565 0 002.112-3.246v-1.387a3.697 3.697 0 00-.031-.445z" fill="#C45446"/><path d="M189.281 226.073h-.957c.019.146.028.294.029.441v1.386a3.586 3.586 0 01-2.775 3.472 3.811 3.811 0 01-.302.053 3.058 3.058 0 00.778.02 3.387 3.387 0 001.144-.296 3.603 3.603 0 001.593-1.406 3.49 3.49 0 00.355-.791c.106-.339.16-.692.159-1.047v-1.387a3.687 3.687 0 00-.024-.445z" fill="#E37970"/><path d="M184.881 231.583h2.903v-.434h-2.903v.434z" fill="#C45446"/><path d="M134.289 240.745s3.282-.709 4.126.221c.844.93 1.322 2.424.474 2.949-.849.524-3.284-.913-4.162-.333-.628.414-.828 1.47-1.459 1.102-.63-.368-1.298-2.788-1.298-2.788l2.319-1.151z" fill="#FFB27D"/><path d="M145.979 203.746s-8.856.388-10.985 2.365c-2.129 1.977-14.875 17.253-15.084 21.256-.21 4.002 11.165 15.379 11.165 15.379s3.161-.762 4.53-2.75c0 0-7.053-12.585-6.637-13.134.417-.549 12.378-10.346 13.357-8.173.846 1.874 3.654-14.943 3.654-14.943zm33.694 23.795s-10.112 3.372-11.378 3.086c-1.265-.287-3.068-13.967-4.044-18.675-1.256-6.048-6.05-7.251-6.05-7.251l-4.547-1.217s5.206 12.863 5.36 15.466c.154 2.603.611 42.571.611 42.571s-.307 1.839 3.215 1.072c3.522-.767 4.442-1.543 4.442-1.543s-1.526-11.173-2.244-21.091c3.588-.613 15.126-6.46 15.126-6.46 1.79-2.802-.491-5.958-.491-5.958z" fill="#F99746"/><path d="M207.938 270.688l-1.843 10.436-5.089 28.829-4.547 25.77a.836.836 0 01-.824.677.586.586 0 01-.587-.662l3.921-29.212 4.188-31.25.633-4.714 4.148.126zm20.134 0l-1.843 10.436-5.087 28.827-4.547 25.77a.824.824 0 01-.822.677.593.593 0 01-.447-.195.587.587 0 01-.141-.467l3.921-29.212 4.187-31.249.633-4.715 4.146.128z" fill="#C69D7F"/><path d="M206.095 281.124c.243-4.483-2.929-5.839-2.929-5.839l.633-4.714 4.139.117-1.843 10.436z" fill="#A0795F"/><path d="M381.636 336.4a.833.833 0 01-.825-.677l-4.04-22.896-5.81-32.931-1.624-9.208 4.137-.117.718 5.345 5.041 37.566 2.991 22.261a.574.574 0 01-.144.462.59.59 0 01-.444.195z" fill="#C69D7F"/><path d="M374.192 275.916c-2.68 1.183-3.231 3.98-3.231 3.98l-1.624-9.208 4.137-.117.718 5.345z" fill="#A0795F"/><path d="M404.838 336.4a.836.836 0 01-.825-.677l-4.037-22.896-5.813-32.931-1.624-9.208 4.139-.117.719 5.345 5.04 37.566 2.989 22.261a.574.574 0 01-.143.463.582.582 0 01-.445.194z" fill="#C69D7F"/><path d="M397.388 275.916c-2.682 1.183-3.233 3.98-3.233 3.98l-1.625-9.208 4.139-.117.719 5.345z" fill="#A0795F"/><path d="M188.341 267.073h215.937a3.587 3.587 0 012.533 1.05 3.585 3.585 0 011.046 2.536v.075a3.582 3.582 0 01-3.579 3.579H188.341a3.577 3.577 0 01-3.577-3.577v-.077a3.578 3.578 0 013.577-3.577v-.009z" fill="#E0B594"/><path d="M231.241 262.724c-.335-.204-.983-.125-1.452-.026v-.681a3.428 3.428 0 00-.031-.441h-7.053a3.827 3.827 0 00-.029.441v1.384a3.556 3.556 0 004.416 3.449 3.55 3.55 0 001.809-1.104s1.677-.414 2.204-1.04c.526-.626.696-1.638.136-1.982zm-.372 1.281c-.179.461-.979.708-1.373.805.16-.372.256-.767.284-1.171.242-.335.628-.529.91-.478.282.051.404.26.179.842v.002z" fill="#C45446"/><path d="M223.251 262.015v1.384a3.565 3.565 0 001.046 2.512 3.565 3.565 0 002.512 1.046c.159 0 .318-.012.476-.036a3.569 3.569 0 01-3.086-3.526v-1.384c.001-.148.011-.295.029-.441h-.957a3.888 3.888 0 00-.02.445z" fill="#E37970"/><path d="M227.68 266.646h-2.903v.434h2.903v-.434zm103.828-3.922c-.335-.204-.983-.125-1.454-.026v-.681c0-.147-.01-.295-.029-.441h-7.053a3.827 3.827 0 00-.029.441v1.384a3.556 3.556 0 004.416 3.449 3.55 3.55 0 001.809-1.104s1.679-.414 2.204-1.04c.524-.626.696-1.638.136-1.982zm-.372 1.281c-.179.461-.979.708-1.373.805.16-.372.256-.767.282-1.171.244-.335.63-.529.91-.478.28.051.406.26.181.842v.002z" fill="#C45446"/><path d="M323.519 262.015v1.384a3.568 3.568 0 003.56 3.558c.16 0 .32-.012.478-.036a3.564 3.564 0 01-3.086-3.526v-1.384c0-.148.01-.295.029-.441h-.948a3.67 3.67 0 00-.033.445z" fill="#E37970"/><path d="M327.947 266.646h-2.903v.434h2.903v-.434z" fill="#C45446"/><path d="M69.34 212.736v123.663H36.72s-.492-4.809-.638-12.563a234.452 234.452 0 01.265-16.222c.028-.502.055-1.014.086-1.527.165-2.826.39-5.779.69-8.817l.083-.813c.331-3.18.739-6.486 1.248-9.885.416-2.76.895-5.585 1.454-8.453l.117-.606c.294-1.459.604-2.928.93-4.408.128-.58.263-1.164.397-1.748.265-1.137.542-2.283.833-3.427a166.516 166.516 0 012.376-8.477c.089-.286.179-.579.267-.881.4-1.263.816-2.53 1.247-3.802a159.274 159.274 0 012.112-5.788c.465-1.21.954-2.425 1.457-3.624 4.77-11.432 11.161-22.614 19.695-32.622z" fill="#DEEDFF"/><path d="M620.49 336.32H21.086a.789.789 0 00-.789.789v.566a.79.79 0 00.79.789H620.49a.789.789 0 00.789-.789v-.566a.789.789 0 00-.789-.789z" fill="#2E3552"/></g><defs><clipPath id="clip0"><rect width="646" height="405" rx="37" fill="#fff"/></clipPath></defs></svg>