<svg width="567" height="405" viewBox="0 0 567 405" fill="none" xmlns="http://www.w3.org/2000/svg"><rect width="565.905" height="404.905" rx="36.221" fill="#fff"/><mask id="mask0" maskUnits="userSpaceOnUse" x="0" y="0" width="566" height="405"><rect width="565.905" height="404.905" rx="36.221" fill="#fff"/></mask><g clip-path="url(#clip0)"><path d="M567 0H0v405h567V0z" fill="#fff"/><path d="M567.632 328.078h-567v76.478h567v-76.478z" fill="#E9E4E0"/><path d="M167.971 297.548h-25.646a.81.81 0 00-.81.81v19.436a10.218 10.218 0 00.768 3.932 10.256 10.256 0 005.546 5.569c1.246.517 2.581.783 3.93.783h6.786a10.245 10.245 0 0010.244-10.244v-19.435a.817.817 0 00-.225-.602.815.815 0 00-.593-.249z" fill="#C1C1C1"/><path d="M164.894 324.734c5.79-3.24 15.718-12.909 14.066-19.695a5.703 5.703 0 00-3.239-3.952c-3.838-1.781-9.329.373-9.936.624l1.822 3.806c1.328-.535 4.567-1.417 6.09-.705a1.458 1.458 0 01.81 1.142c.963 3.952-6.803 12.285-12.01 15.224l2.397 3.556z" fill="#C1C1C1"/><path d="M157.792 291.442c.105.203.121-.072.186-.242l.146-.616c.089-.429.17-.866.235-1.32.123-.934.171-1.876.145-2.818a16.374 16.374 0 00-1.255-5.798 13.812 13.812 0 00-3.166-4.608 13.453 13.453 0 00-1.952-1.62l-1.619-1.093a18.272 18.272 0 01-4.746-4.721 8.626 8.626 0 01-1.166-2.478 2.854 2.854 0 01-.081-1.514c.06-.18.131-.355.211-.527.15-.344.321-.679.51-1.004a10.92 10.92 0 011.53-1.992 7.689 7.689 0 014.122-2.138 7.293 7.293 0 014.503.81c.813.417 1.576.925 2.275 1.514.4.286.774.605 1.118.956.323.395.762.678 1.255.809l1.514.276c3.304.599 6.341-2.43 6.795-6.835a9.891 9.891 0 00-1.442-6.365 7.4 7.4 0 00-1.806-1.79 18.392 18.392 0 00-2.057-1.344 21.175 21.175 0 00-4.462-2.049 15.767 15.767 0 00-9.839-.081 18.628 18.628 0 00-8.705 6.3 22.984 22.984 0 00-3.078 5.37 23.871 23.871 0 00-1.077 3.287 19.394 19.394 0 00-.542 4.155 18.188 18.188 0 001.619 7.701 17.58 17.58 0 003.369 4.956 23.095 23.095 0 007.54 5.191l.963.397.47.186.332.121c.449.129.882.311 1.288.543a7.382 7.382 0 012.243 1.668 9.638 9.638 0 011.789 2.834 15.7 15.7 0 01.681 1.928c.105.348.202.704.291 1.077l.138.583c.065.227.065.356.21.956.146.599.592.858 1.013.672a1.16 1.16 0 00.502-1.337z" fill="#fff"/><path d="M156.034 127.731h-8.633v42.272h8.633v-42.272zm-11.45.041h-8.633v42.272h8.633v-42.272zm-11.192.048h-8.632v42.272h8.632V127.82z" fill="#E3DFDC"/><path d="M165.995 141.033l-8.495-.036-.123 29.323 8.495.036.123-29.323z" fill="#D3CDC9"/><path d="M173.864 142.364l-6.459 5.518 19.048 22.294 6.459-5.518-19.048-22.294z" fill="#E3DFDC"/><path d="M212.211 182.159l-103.404-.526.024-10.738 103.404.526-.024 10.738z" stroke="#E3DFDC" stroke-width="2.429" stroke-miterlimit="10"/><path d="M247.324 162.691h69.879v38.757a15.64 15.64 0 01-15.638 15.638h-37a17.217 17.217 0 01-17.216-17.217v-37.178h-.025z" fill="#9A1C27"/><path d="M336.727 271.602l-105.648-1.782v-11.24c0-18.35 22.553-35.461 44.734-35.461h16.658c19.702 0 44.256 17.232 44.256 33.534v14.949z" fill="#383F45"/><path d="M289.216 199.877h-13.451a4.926 4.926 0 00-4.924 4.915v21.096a11.652 11.652 0 0022.501 4.553c.567-1.449.838-2.997.797-4.553v-21.096a4.924 4.924 0 00-4.923-4.915z" fill="#FBC39D"/><path d="M270.841 222.957s.947 6.867 11.653 6.867c10.706 0 11.645-6.867 11.645-6.867h-23.298zm45.123-49.537a7.658 7.658 0 00-7.839 8.957 7.65 7.65 0 0010.4 5.788 7.645 7.645 0 004.792-7.1 7.508 7.508 0 00-7.353-7.645zm-66.915 0a7.658 7.658 0 00-7.839 8.957 7.65 7.65 0 0010.4 5.788 7.645 7.645 0 004.792-7.1 7.508 7.508 0 00-7.353-7.645z" fill="#F9AC7F"/><path d="M279.813 225.265l-.056.057a30.52 30.52 0 002.737.129 31.742 31.742 0 008.033-1.036.297.297 0 010-.073c14.229-3.733 24.764-17.136 24.764-33.089v-39.988c0-18.853-14.698-15.848-32.83-15.848-18.131 0-32.829-3.005-32.829 15.848v39.988c.032 17.913 13.313 32.595 30.181 34.012z" fill="#FBC39D"/><path d="M311.13 178.101v10.795h-14.075s-2.883-7.782-14.577-7.782c-11.693 0-14.576 7.782-14.576 7.782h-14.05v-10.795c0-4.251-1.555-5.668-4.187-6.114v19.266c0 17.913 13.273 32.594 30.149 34.012l-.056.056a30.5 30.5 0 002.737.13c.923 0 1.83-.049 2.729-.13l-.057-.056c16.876-1.418 30.157-16.099 30.157-34.012v-19.266c-2.64.502-4.194 1.863-4.194 6.114z" fill="#3A0909"/><path d="M272.331 193.544h19.767s-1.741 7.75-9.871 7.75c-8.131 0-9.896-7.75-9.896-7.75z" fill="#E6E6E6"/><path d="M360.001 316.368h-153.92a5.726 5.726 0 00-5.726 5.725v.26a5.726 5.726 0 005.726 5.725h153.92a5.726 5.726 0 005.726-5.725v-.26a5.726 5.726 0 00-5.726-5.725z" fill="#C1C1C1"/><path d="M345.919 240.651H219.216a7.345 7.345 0 00-7.345 7.345v72.737a7.346 7.346 0 007.345 7.345h126.703a7.346 7.346 0 007.345-7.345v-72.737a7.345 7.345 0 00-7.345-7.345z" fill="#D2D3D5"/><path d="M280.825 294.252a9.892 9.892 0 01-9.135-6.104 9.886 9.886 0 017.206-13.481 9.887 9.887 0 0111.817 9.697 9.9 9.9 0 01-2.901 6.987 9.9 9.9 0 01-6.987 2.901z" fill="#fff"/><path d="M283.143 185.673h-1.904a3.734 3.734 0 01-3.57-2.637 3.721 3.721 0 01-.138-1.566l.947-7.604a3.745 3.745 0 011.246-2.316 3.746 3.746 0 012.463-.923 3.732 3.732 0 013.709 3.239l.947 7.604a3.737 3.737 0 01-.901 2.937 3.72 3.72 0 01-1.264.934 3.713 3.713 0 01-1.535.332z" fill="#F9AC7F"/><path d="M284.948 120.054h-6.899a2.77 2.77 0 00-2.77 2.77v.137a2.77 2.77 0 002.77 2.77h6.899a2.77 2.77 0 002.77-2.77v-.137a2.77 2.77 0 00-2.77-2.77z" fill="#952C1B"/><path d="M247.324 162.691l69.887-.041v-8.252a30.66 30.66 0 00-30.684-30.651h-8.552a30.666 30.666 0 00-30.651 30.684v8.26z" fill="#DB3A40"/><path d="M278.882 141.854h5.815a9.483 9.483 0 019.483 9.483v6.576h-24.756v-6.543a9.495 9.495 0 012.757-6.718 9.493 9.493 0 016.701-2.798z" fill="#3A0909"/><path d="M269.853 152.819h24.408v8.204h-24.408a4.084 4.084 0 01-3.787-2.529 4.08 4.08 0 01-.31-1.569 4.111 4.111 0 01.309-1.571 4.099 4.099 0 013.788-2.535z" fill="#EF818A"/><path d="M273.821 157.103a1.997 1.997 0 01-1.26 1.833 2.001 2.001 0 01-2.708-1.496 2.005 2.005 0 01.882-2.042 2.005 2.005 0 011.118-.32 2.01 2.01 0 011.968 2.025z" fill="#FF553C"/><path d="M273.821 157.103a1.997 1.997 0 01-1.26 1.833 2.001 2.001 0 01-2.708-1.496 2.005 2.005 0 01.882-2.042 2.005 2.005 0 011.118-.32 2.01 2.01 0 011.968 2.025zm6.522 1.932a1.993 1.993 0 10-.667-3.929 1.993 1.993 0 00.667 3.929zm9.844-1.932a1.992 1.992 0 11-3.985.003 1.992 1.992 0 013.985-.003z" fill="#DB3A40"/><path d="M269.602 170.57a3.032 3.032 0 01-1.875 2.806 3.035 3.035 0 01-3.309-.659 3.035 3.035 0 114.294-4.294c.57.569.89 1.342.89 2.147zm30.174 0a3.032 3.032 0 01-1.875 2.806 3.037 3.037 0 111.875-2.806z" fill="#111110"/><path d="M294.26 152.803s5.969-3.595 5.515-9.588l-7.693 2.187 1.62-6.641-6.827 7.005 7.385 7.037z" fill="#3A0909"/><path d="M161.687 99.801c17.089 0 30.943-13.853 30.943-30.943 0-17.089-13.854-30.943-30.943-30.943-17.089 0-30.943 13.854-30.943 30.943 0 17.09 13.854 30.943 30.943 30.943z" fill="#F4F4F4"/><path d="M161.72 40.798a27.661 27.661 0 00-27.132 33.06 27.666 27.666 0 0021.735 21.735 27.664 27.664 0 0033.06-27.132 27.697 27.697 0 00-27.663-27.663z" fill="#F4F4F4"/><path d="M161.719 100.578a32.125 32.125 0 1132.125-32.117 32.151 32.151 0 01-32.125 32.117zm0-59.78a27.664 27.664 0 1027.663 27.663 27.697 27.697 0 00-27.663-27.663v0z" fill="#E3DFDC" stroke="#E3DFDC" stroke-width="1.49" stroke-miterlimit="10"/><path d="M161.809 74.503a1.67 1.67 0 01-1.49-.915l-7.289-14.302a1.674 1.674 0 01.214-1.843 1.673 1.673 0 012.354-.19c.167.142.304.316.404.51l7.337 14.31a1.665 1.665 0 01-.729 2.252 1.617 1.617 0 01-.801.178z" fill="#E3DFDC"/><path d="M155.792 72.567a.814.814 0 01-.138-1.62l27.323-4.713a.821.821 0 11.283 1.62l-27.323 4.697-.145.016z" fill="#E3DFDC"/><path d="M419.384 301.249h-5.749v-37.81a2.878 2.878 0 012.875-2.875 2.874 2.874 0 012.874 2.875v37.81zm8.649 0h-5.758v-37.81a2.878 2.878 0 015.758 0v37.81zm-17.702 11.07h-5.75v-37.842a2.875 2.875 0 012.875-2.875 2.885 2.885 0 012.883 2.875l-.008 37.842z" fill="#fff"/><path d="M431.88 290.155h-31.542v38.069h31.542v-38.069z" fill="#C1C1C1"/><path d="M435.33 282.988h-38.094v7.159h38.094v-7.159z" fill="#AAA"/><path d="M445.031 66.534h-89.379v107.737h89.379V66.534z" fill="#F4F4F4"/><path d="M445.031 66.534h-89.379v107.737h89.379V66.534z" stroke="#E3DFDC" stroke-width="3.709" stroke-miterlimit="10"/><path d="M429.386 82.779h-59.724v75.62h59.724v-75.62z" fill="#E3DFDC"/><path d="M380.368 121.763a1.935 1.935 0 010-2.721l9.548-9.547a1.926 1.926 0 012.858 2.583c-.039.05-.082.096-.129.138l-8.228 8.187 8.187 8.187a1.927 1.927 0 010 2.713 1.933 1.933 0 01-2.115.427 1.921 1.921 0 01-.63-.427l-9.491-9.54zm26.035 6.827l8.212-8.187-8.179-8.187a1.939 1.939 0 01.083-2.661 1.934 1.934 0 012.662-.06l9.531 9.547a1.939 1.939 0 010 2.721l-9.547 9.54a1.96 1.96 0 01-1.361.575 1.942 1.942 0 01-1.892-2.296c.069-.373.245-.718.507-.992h-.016zm-11.685 2.34l4.98-21.913a1.933 1.933 0 013.518-.599c.272.434.361.958.248 1.457l-5.005 21.914a1.936 1.936 0 01-1.895 1.506 3.982 3.982 0 01-.437 0 1.933 1.933 0 01-1.45-2.316l.025-.049h.016z" fill="#F3EFEC"/></g><defs><clipPath id="clip0"><path d="M0 36.221C0 16.217 16.217 0 36.221 0H530.78C550.783 0 567 16.217 567 36.221v332.557C567 388.783 550.783 405 530.779 405H36.221C16.217 405 0 388.783 0 368.779V36.221z" fill="#fff"/></clipPath></defs></svg>