<svg width="21" height="12" viewBox="0 0 21 12" fill="none" xmlns="http://www.w3.org/2000/svg"><path fill-rule="evenodd" clip-rule="evenodd" d="M19.742.813c.14-.469 0-.813-.668-.813h-2.21c-.563 0-.822.297-.963.625 0 0-1.124 2.74-2.716 4.52-.515.515-.75.68-1.03.68-.141 0-.345-.165-.345-.633V.812c0-.562-.163-.812-.63-.812H7.705c-.351 0-.562.26-.562.508 0 .533.796.656.878 2.155v3.255c0 .714-.129.843-.41.843-.75 0-2.572-2.752-3.653-5.902C3.746.247 3.533 0 2.968 0H.758C.126 0 0 .297 0 .625c0 .586.75 3.49 3.49 7.33C5.315 10.578 7.89 12 10.231 12c1.405 0 1.579-.316 1.579-.86V9.158c0-.632.133-.758.578-.758.328 0 .89.164 2.201 1.429 1.5 1.499 1.747 2.171 2.59 2.171h2.21c.632 0 .948-.316.766-.939-.2-.621-.915-1.522-1.865-2.59-.515-.61-1.288-1.265-1.522-1.593-.328-.421-.234-.609 0-.984 0 0 2.693-3.793 2.974-5.081z" fill="#fff"/></svg>